<svg class="flor-sup-princ" width="136" height="214" viewBox="0 0 136 214" fill="none" xmlns="http://www.w3.org/2000/svg">
<g opacity="0.7" clip-path="url(#clip0_5_66)">
<path d="M12.9024 75.0009C12.973 75.6338 13.2612 76.2322 13.6236 76.7488C14.4017 77.8531 15.3817 78.8327 16.2456 79.8703C17.1801 80.9929 18.1064 82.1235 18.9835 83.2899C19.8516 84.4445 20.6377 85.6568 21.4613 86.8421C22.3124 88.0668 23.1843 89.2785 24.07 90.4808C25.8339 92.8713 27.6567 95.2156 29.5407 97.5151C31.3481 99.7212 33.2028 101.858 35.2935 103.804C39.3982 107.626 44.0208 110.917 48.6794 114.026C51.057 115.61 53.4895 117.116 56.0001 118.48C58.5355 119.857 61.1538 121.03 63.8204 122.121C66.385 123.171 68.9268 124.25 71.1369 125.953C72.1806 126.757 73.2037 127.6 74.0932 128.578C74.5314 129.06 74.9611 129.549 75.4073 130.023C75.8536 130.497 76.2938 130.963 76.5541 131.57C76.6545 131.804 76.8701 131.952 77.111 132.014C81.2347 139.417 86.1915 146.343 91.2958 153.094C96.9784 160.609 103.202 167.754 110.364 173.899C117.955 180.412 126.082 186.266 134.134 192.185C135.116 192.908 136.097 191.288 135.121 190.571C134.122 189.836 133.123 189.103 132.123 188.37C124.262 182.597 116.275 176.852 109.088 170.241C105.689 167.114 102.523 163.768 99.5185 160.279C99.5736 160.06 99.6057 159.836 99.6362 159.631C99.6792 159.344 99.7061 159.058 99.743 158.771C99.7475 158.74 99.7663 158.635 99.7713 158.598C99.7996 158.483 99.8326 158.371 99.8718 158.26C100.116 157.541 100.456 156.859 100.734 156.153C101.311 154.682 101.482 153.095 101.626 151.532C101.927 148.3 102.744 145.152 103.163 141.931C103.591 138.659 103.742 135.37 103.52 132.076C103.299 128.802 102.8 125.553 102.165 122.337C101.521 119.078 100.743 115.848 99.9722 112.617C99.1626 109.224 98.362 105.836 97.3119 102.507C96.2609 99.1751 95.1795 95.8662 94.5382 92.4253C93.919 89.101 93.6072 85.7327 93.4222 82.3598C93.2347 78.9595 93.1076 75.5446 93.0644 72.1375C93.0423 70.4111 93.0617 68.6827 93.0815 66.9562C93.0928 65.9576 93.0263 64.9098 93.1174 63.894C93.3454 63.3131 93.5088 62.7218 93.4549 62.1329C93.4104 61.6497 93.1628 61.2694 92.6633 61.1799C92.1972 61.0962 91.7553 61.3867 91.61 61.8296C91.4571 62.2984 91.3619 62.7833 91.304 63.2732C91.2521 63.3977 91.1958 63.5212 91.1429 63.6419C89.9274 66.4145 89.0045 69.3725 88.1975 72.2886C87.3331 75.4145 86.7881 78.6214 86.2777 81.8219C85.2545 88.2556 84.626 94.7501 84.3628 101.259C84.0976 107.842 84.1868 114.443 84.8615 121.001C85.544 127.634 86.9348 134.094 88.8525 140.475C90.0448 144.443 91.4105 148.359 92.9802 152.192C92.1916 151.16 91.4121 150.124 90.6406 149.08C87.7401 145.16 84.9236 141.174 82.3129 137.053C79.6924 132.918 77.3665 128.635 75.2259 124.233C73.0422 119.745 70.9911 115.192 68.9589 110.634C67.9387 108.342 66.8849 106.061 65.9025 103.752C64.9211 101.447 64.135 99.0645 63.4245 96.6641C62.009 91.886 60.7082 87.0443 59.5522 82.1976C58.9885 79.8338 58.4137 77.4487 58.291 75.0147C58.1828 72.8731 58.3222 70.7298 58.2164 68.5896C58.2486 68.5739 58.2798 68.5623 58.313 68.5423C58.3443 68.5228 58.3742 68.4976 58.4032 68.4686C58.5808 68.5418 58.7546 68.6159 58.9177 68.6786C59.6114 68.9433 60.3138 69.186 61.0215 69.4094C61.6794 69.6167 62.3221 69.9018 63.022 69.9351C63.7808 69.9722 64.4808 69.6575 65.154 69.3473C65.8053 69.0464 66.4496 68.7491 67.0625 68.3714C68.2811 67.6198 69.382 66.6946 70.5042 65.8083C71.5855 64.9517 72.6589 64.0951 73.6296 63.1113C75.6966 61.0174 77.0951 58.4647 78.3383 55.8234C78.9524 54.5216 79.5831 53.2218 80.0304 51.8502C80.4361 50.6046 80.7433 49.2987 81.3314 48.1212C82.6394 45.5083 85.2528 44.0306 87.268 42.0371C88.3579 40.9586 89.4622 39.8986 90.611 38.8818C91.4799 38.1145 92.2597 37.2347 92.8881 36.2574C94.1251 34.3375 94.6589 32.0551 94.5754 29.7836C94.4763 27.0819 94.0499 24.0931 92.484 21.8189C91.0774 19.7742 88.9502 18.0092 86.5959 17.1848C85.336 16.7446 83.9129 16.4736 82.5767 16.5137C81.0109 16.5631 79.5585 17.1251 78.0761 17.5703C77.7702 17.662 77.5935 17.8746 77.5235 18.1154C76.8169 17.2579 75.9568 16.5433 74.88 16.1409C73.8248 15.7453 72.685 15.762 71.583 15.8856C70.9774 15.9536 70.3781 16.064 69.7766 16.157C69.5259 16.1954 69.2743 16.23 69.0213 16.259C68.9553 16.2669 68.7882 16.2792 68.7529 16.2817C68.7269 16.282 68.7033 16.2837 68.6774 16.2839C68.6629 16.2734 68.6418 16.2605 68.6094 16.2423C68.6528 16.2978 68.5491 16.1748 68.5515 16.1763C68.4084 16.0308 68.3191 15.8923 68.2032 15.7103C67.9659 15.3395 67.748 14.9581 67.4812 14.6065C66.8676 13.7945 66.1218 13.0564 65.3442 12.4019C63.7608 11.0677 61.9418 10.1163 59.9565 9.52893C56.3998 8.47837 52.1688 8.48818 48.9838 10.5896C48.1136 10.2314 47.1341 10.1415 46.0332 10.4528C43.9852 11.0323 42.452 12.6776 41.1072 14.2416C40.1229 15.3846 38.9592 17.3188 37.3144 17.3393C36.3274 17.3512 35.3338 16.9287 34.4218 16.5966C33.3999 16.223 32.3596 15.8478 31.2664 15.7673C30.2443 15.6917 29.2123 15.9564 28.361 16.5315C27.4737 17.1312 26.7695 17.9429 26.0681 18.7418C24.6416 20.3734 23.3816 22.1149 22.5187 24.1105C21.6439 26.1311 21.1342 28.2976 20.9156 30.486C20.4629 35.0544 21.0714 39.9111 23.0986 44.0578C24.1043 46.1151 25.4329 48.0186 26.7505 49.8847C28.1119 51.8163 29.5473 53.698 31.0676 55.5093C32.5226 57.2404 34.016 58.9562 35.6235 60.5484C37.1553 62.067 38.8427 63.4181 40.6008 64.6641C44.0106 67.0799 47.8338 68.8961 52.0838 68.9237C53.528 68.9336 54.982 68.7852 56.4129 68.5243C56.3907 69.4695 56.3681 70.4128 56.3582 71.3591C56.3289 73.7598 56.3604 76.1559 56.8123 78.5206C57.2985 81.061 57.9161 83.5738 58.5706 86.0737C59.8503 90.9605 61.0687 95.9001 62.7166 100.68C64.3461 105.409 66.5732 109.945 68.6196 114.503C68.9551 115.248 69.2925 115.993 69.6318 116.737C68.2108 114.392 66.7077 112.096 65.0681 109.898C61.9067 105.659 58.1521 101.87 54.2641 98.2998C50.3785 94.7309 46.2686 91.41 41.9927 88.3211C37.7698 85.2695 33.4037 82.3703 28.7563 79.9968C26.3506 78.7688 23.8557 77.7843 21.3655 76.7447C20.0828 76.21 18.8063 75.6597 17.5236 75.125C16.7258 74.7933 15.9283 74.4216 15.1031 74.1505C14.8341 73.9554 14.5387 73.8166 14.1947 73.7996C14.0933 73.794 14.013 73.8173 13.9462 73.8554C13.9085 73.8485 13.8704 73.8397 13.8332 73.8347C13.1607 73.7328 12.8311 74.4641 12.8902 74.9918L12.9024 75.0009ZM23.0275 37.4979C22.5379 34.4624 22.5371 31.273 23.1998 28.2478C23.3399 28.9699 23.4851 29.6888 23.6025 30.4164C23.7731 31.4731 23.8873 32.5274 24.1911 33.556C24.7233 35.3495 25.4839 37.0779 26.096 38.8461C26.7076 40.6124 27.3243 42.3915 28.1858 44.0576C29.0649 45.7555 30.3071 47.2339 31.446 48.7571C32.641 50.3548 33.8013 52.0249 35.1501 53.4976C37.6098 56.1863 40.541 58.4335 43.4421 60.6219C44.9722 61.7769 46.5392 62.9351 48.2241 63.8528C49.8607 64.7442 51.5668 65.5088 53.3154 66.1513C53.6135 66.4174 53.9135 66.683 54.2178 66.9417C53.5849 67.0042 52.9499 67.0412 52.3167 67.0439C50.3382 67.0488 48.4468 66.6687 46.6123 65.927C44.8685 65.2214 43.247 64.2184 41.7133 63.1402C40.0424 61.9652 38.4548 60.688 37.002 59.2484C33.8809 56.1551 31.0491 52.6942 28.5135 49.1099C27.249 47.323 25.9748 45.5043 24.971 43.5546C23.9899 41.6493 23.3688 39.6113 23.0275 37.4979ZM30.8943 17.6667C30.8673 17.9612 30.812 18.2545 30.7648 18.5398C30.6783 19.0606 30.6385 19.5761 30.6378 20.1042C30.6365 21.2023 30.7016 22.3105 30.7659 23.4068C30.8946 25.6254 31.3575 27.8696 31.8431 30.0342C32.3007 32.0656 33.0319 34.021 33.7609 35.967C34.4511 37.8104 35.1337 39.6556 35.8552 41.4874C37.2791 45.1057 38.8499 48.6865 40.8614 52.0212C42.8557 55.326 45.3649 58.2948 47.969 61.1347C48.9426 62.1958 49.9547 63.2257 51.0282 64.1869C50.0109 63.7241 49.0136 63.2206 48.0418 62.6649C46.2672 61.6488 44.6011 60.3446 42.994 59.0861C40.2416 56.9339 37.3115 54.7824 35.1244 52.022C33.9143 50.4939 32.7858 48.9062 31.5842 47.372C30.4665 45.9456 29.4082 44.4749 28.6395 42.8285C27.861 41.1583 27.2941 39.4033 26.6878 37.6676C26.0963 35.9765 25.3219 34.3314 24.9142 32.5819C24.7067 31.696 24.6244 30.782 24.4741 29.8844C24.3471 29.1251 24.1861 28.374 24.0421 27.6188C23.9483 27.1215 23.8482 26.5737 23.8212 26.0303C23.9319 25.7097 24.0473 25.3919 24.1735 25.0775C24.9196 23.236 26.0919 21.6036 27.3932 20.1162C28.0269 19.3936 28.6734 18.5579 29.5066 18.0571C29.9436 17.7958 30.409 17.6777 30.8938 17.6648L30.8943 17.6667ZM40.6967 17.608C40.4834 18.3493 40.3524 19.1168 40.3113 19.9086C40.2566 20.9596 40.3582 21.9869 40.4422 23.0325C40.5292 24.1234 40.6378 25.2131 40.7643 26.3024C41.2182 30.2104 41.9638 34.0841 42.8418 37.918C43.7243 41.7707 44.7683 45.5885 45.9793 49.352C47.1209 52.9023 48.5115 56.3906 50.2852 59.6766C51.1672 61.3118 52.1482 62.8931 53.2488 64.3896C53.6142 64.8854 53.9854 65.3799 54.3727 65.8585C54.185 65.6937 53.9944 65.5337 53.8058 65.3732C53.795 65.3618 53.7828 65.3527 53.7683 65.3422C53.2178 64.875 52.6644 64.4125 52.1181 63.9382C50.4987 62.5287 49.0234 60.9626 47.6088 59.3498C46.3517 57.917 45.0928 56.4686 43.9443 54.9477C42.7922 53.4196 41.7686 51.7946 40.8394 50.1208C38.9803 46.7714 37.5077 43.2249 36.1428 39.6524C35.4325 37.7919 34.7269 35.9262 34.0515 34.0533C33.3564 32.1231 32.8287 30.1906 32.4379 28.1791C32.255 27.2293 32.0645 26.2814 31.918 25.3248C31.767 24.3333 31.7113 23.3469 31.6642 22.3464C31.6179 21.3497 31.5336 20.3442 31.6052 19.3471C31.6442 18.8118 31.7688 18.2918 31.82 17.7656C31.8308 17.769 31.843 17.77 31.8534 17.7715C33.8088 18.2181 35.7004 19.446 37.7682 19.2056C38.9491 19.069 39.8835 18.4159 40.6953 17.6103L40.6967 17.608ZM48.0357 12.2898C48.0512 12.3541 48.079 12.4194 48.1279 12.4816C48.8539 13.3945 48.3979 14.3982 48.3814 15.45C48.3735 15.9979 48.4311 16.5439 48.467 17.0912C48.5044 17.6781 48.4768 18.2606 48.4643 18.8476C48.4063 21.2952 48.6317 23.7325 48.819 26.169C49.159 30.5504 49.4113 34.9829 50.1738 39.3165C50.9465 43.7096 52.1845 48.0166 53.2572 52.3433C53.7892 54.4928 54.3628 56.6322 54.8703 58.7876C55.2967 60.5985 55.6316 62.4196 55.9546 64.2494C56.0158 64.5946 56.1777 65.6234 56.4664 66.6057C56.3899 66.6201 56.3134 66.6346 56.2369 66.649C56.0512 66.4258 55.8554 66.211 55.6686 66.0001C55.0264 65.277 54.4418 64.494 53.8803 63.7075C52.6883 62.039 51.641 60.2737 50.6997 58.4509C49.0005 55.1589 47.6922 51.6968 46.5872 48.1657C45.423 44.4468 44.4116 40.6812 43.5607 36.8768C42.7149 33.0933 42.0074 29.2783 41.5785 25.4243C41.3723 23.5643 41.106 21.6547 41.2181 19.78C41.3182 18.0961 41.8769 16.5477 42.8303 15.1601C43.1798 14.7679 43.5371 14.3838 43.9123 14.0155C44.5784 13.361 45.3246 12.7232 46.2097 12.388C46.8767 12.1352 47.4817 12.1234 48.0391 12.287L48.0357 12.2898ZM49.8742 13.5705C51.089 14.9355 51.8577 16.756 52.5947 18.47C53.396 20.3346 54.2673 22.1743 55.7025 23.6322C55.5795 23.7358 55.5276 23.9023 55.6516 24.0764C56.5499 25.3397 57.3832 26.6566 57.9973 28.0844C58.6442 29.5903 58.9861 31.1916 59.1732 32.8143C59.5128 35.742 59.6746 38.7285 59.6793 41.677C59.6851 44.6052 59.3986 47.4738 58.9826 50.3696C58.5496 53.3936 58.2423 56.4332 57.9755 59.475C57.775 61.763 57.5348 64.0606 57.5884 66.3573C57.5015 66.3783 57.4126 66.3997 57.3257 66.4206C57.241 66.1271 57.1676 65.8308 57.0984 65.5355C56.7936 64.2292 56.6366 62.8972 56.3837 61.5824C55.97 59.4344 55.4444 57.3114 54.9112 55.1903C54.3862 53.1031 53.8843 51.0124 53.3555 48.9261C52.292 44.7371 51.1568 40.5494 50.6577 36.2463C50.1568 31.9277 49.8316 27.5827 49.5308 23.2479C49.4582 22.1915 49.4068 21.132 49.3979 20.0744C49.389 19.0666 49.4716 18.0569 49.4047 17.0492C49.369 16.5278 49.3174 16.0064 49.3251 15.4826C49.3307 15.0413 49.4122 14.6157 49.463 14.1795C49.5082 13.7947 49.4914 13.4428 49.415 13.1092C49.5713 13.2516 49.7266 13.4061 49.8746 13.5724L49.8742 13.5705ZM58.4451 65.9209C58.4411 63.2822 58.78 60.6309 59.0327 58.0204C59.3282 54.9816 59.6953 51.9576 60.125 48.9365C60.5383 46.0213 60.6459 43.0738 60.5529 40.1326C60.5071 38.6479 60.4022 37.1674 60.2875 35.6873C60.17 34.1958 60.0634 32.6997 59.7888 31.2281C59.3559 28.9008 58.3854 26.8071 57.1199 24.8504C57.5004 25.1266 57.8962 25.3832 58.3059 25.6144C59.183 26.1089 60.0926 26.5396 60.9338 27.1008C62.6165 28.225 63.7696 29.9228 64.6606 31.7118C66.593 35.5895 66.9479 39.9913 66.5657 44.2468C66.3704 46.4235 66.1566 48.6147 65.7126 50.7554C65.2741 52.8688 64.6094 54.9567 63.8873 56.9885C63.1917 58.9478 62.4123 60.9414 61.2926 62.701C60.5136 63.9246 59.5319 64.9791 58.4455 65.9228L58.4451 65.9209ZM60.1382 24.4469C59.1273 23.8947 58.1196 23.3396 57.2716 22.5342C56.6177 21.9119 56.0961 21.1997 55.6475 20.4419C55.5955 20.1845 55.5425 19.9313 55.5003 19.6815C55.3412 18.756 55.3963 17.8229 55.4782 16.8933C55.6486 14.9865 55.7981 13.0927 56.1329 11.2043C56.1661 11.0183 56.1009 10.8641 55.9915 10.7585C56.7513 10.7913 57.5153 10.8832 58.267 11.0399C58.2693 12.2692 58.2357 13.4991 58.2616 14.7267C58.2907 16.0755 58.4443 17.4263 58.6612 18.7578C58.9748 20.6979 59.4806 22.5977 60.1382 24.4469ZM54.2164 10.7943C54.5764 10.7615 54.9415 10.7495 55.3046 10.746C55.2683 10.7948 55.2433 10.8568 55.2294 10.9321C54.8784 12.9024 54.7112 14.8724 54.535 16.8626C54.5005 17.2589 54.4778 17.6543 54.4669 18.0488C54.3319 17.7374 54.1968 17.426 54.0641 17.1161C53.3206 15.3915 52.2533 13.2031 50.7466 11.7725C51.8226 11.2252 53.0008 10.9033 54.2183 10.7939L54.2164 10.7943ZM64.3177 14.0091C64.6055 14.2657 64.8791 14.5377 65.1483 14.8168C65.0741 14.8906 65.0247 14.9925 65.0259 15.1302C65.0292 16.3472 64.8074 17.5345 64.5804 18.7251C64.3508 19.9382 64.2114 21.1436 64.1161 22.3744C64.0192 23.6236 63.8357 24.8536 63.7812 26.1046C63.7683 26.4077 63.7478 26.7126 63.7329 27.0161C63.2862 26.5479 62.8037 26.1142 62.276 25.7335C61.9854 25.5235 61.6843 25.3361 61.378 25.152C60.5422 23.0198 59.9367 20.806 59.5669 18.5415C59.3504 17.2119 59.2048 15.8692 59.1861 14.5219C59.1712 13.4396 59.2238 12.3551 59.1929 11.2727C61.0882 11.8018 62.8717 12.7218 64.3163 14.0114L64.3177 14.0091ZM68.9372 18.167C68.9296 18.2348 68.9219 18.3027 68.9162 18.37C68.9028 18.5552 68.8956 18.7409 68.8921 18.9258C68.8307 18.9945 68.7861 19.0833 68.7757 19.1978C68.6468 20.5546 68.5475 21.9184 68.4171 23.2776C68.3009 23.8075 68.1766 24.3374 68.0698 24.8651C67.7679 26.3336 67.521 27.8069 67.2835 29.2859C67.1372 30.1971 66.9932 31.1097 66.8717 32.0248C66.7188 31.6557 66.5588 31.2903 66.3845 30.9324C65.8863 29.9106 65.2978 28.9206 64.6005 28.0188C64.5927 27.5468 64.6439 27.0705 64.6771 26.6026C64.7235 25.9735 64.7355 25.3427 64.804 24.7143C64.8761 24.051 64.9755 23.3931 65.0316 22.7297C65.1422 21.4212 65.2657 20.1417 65.5106 18.8508C65.7085 17.8133 65.9017 16.7729 65.9535 15.7185C66.0338 15.8192 66.1079 15.9193 66.1689 16.0146C66.6546 16.7774 67.1185 17.7314 68.0209 18.0739C68.3358 18.194 68.6395 18.1928 68.9354 18.1674L68.9372 18.167ZM73.821 17.8039C73.9631 17.8376 74.0999 17.8827 74.2316 17.9309C74.131 18.0032 74.0611 18.12 74.0654 18.2869C74.1197 20.1635 74.141 22.0441 74.0369 23.919C73.9296 25.8385 73.6936 27.7551 73.5316 29.6719C73.3907 31.3356 73.2685 33.0028 73.0253 34.6572C72.7807 36.3139 72.4381 37.9542 72.0786 39.5907C71.3698 42.823 70.6915 46.074 69.7056 49.2352C68.7633 52.2619 67.4483 55.1444 65.9417 57.9291C65.5403 58.6698 65.1351 59.4113 64.7064 60.1385C65.015 59.3943 65.2977 58.6423 65.57 57.8967C66.3323 55.7993 67.0273 53.6381 67.4947 51.4538C67.9848 49.156 68.2282 46.8057 68.4447 44.4678C68.6598 42.1243 68.6729 39.8055 68.3424 37.4715C68.1733 36.2804 67.9146 35.099 67.5646 33.9455C67.5766 33.8046 67.5929 33.6647 67.6068 33.5234C67.6751 33.093 67.8004 32.6669 67.8667 32.2369C67.9605 31.6304 68.1263 31.0405 68.2559 30.4414C68.5199 29.23 68.7199 27.9939 68.9208 26.7697C69.1182 25.5643 69.252 24.3522 69.3651 23.1371C69.4875 22.5497 69.6015 21.9603 69.6824 21.3669C69.8326 20.2809 69.7679 19.1826 69.8611 18.0923C69.8622 18.0801 69.8632 18.0678 69.8624 18.056C70.2126 18.0076 70.562 17.9554 70.9123 17.899C71.859 17.7448 72.8723 17.5766 73.8229 17.8034L73.821 17.8039ZM78.9939 26.1998C79.7271 29.8645 79.4523 33.8602 77.927 37.2973C77.1001 39.1604 75.8842 40.8192 74.9494 42.6242C73.9484 44.5612 73.2123 46.6264 72.5628 48.7026C71.4049 52.4111 70.0488 56.0195 67.7421 59.185C66.6138 60.7347 65.2709 62.1242 63.7676 63.3124C63.7172 63.3525 63.6646 63.3912 63.6138 63.4294C65.0531 61.6768 66.1388 59.5934 67.176 57.6157C68.6837 54.7447 69.9557 51.7665 70.8691 48.6528C71.8213 45.4018 72.5206 42.0718 73.222 38.7592C73.5688 37.1198 73.8818 35.4726 74.0906 33.8085C74.311 32.0597 74.4236 30.2948 74.5767 28.5402C74.725 26.8487 74.9307 25.1633 75.0078 23.467C75.0851 21.7546 75.0638 20.04 75.0133 18.3284C75.928 18.9379 76.5751 19.9137 77.1113 20.9104C78.003 22.5692 78.623 24.3535 78.9939 26.1998ZM64.7368 64.9445C67.384 62.9347 69.4932 60.3188 71.095 57.4231C70.8934 57.9476 70.6876 58.4711 70.4772 58.9918C69.7953 60.6679 68.9784 62.3065 67.7841 63.6822C67.1989 64.3572 66.5335 64.9734 65.77 65.4394C64.9002 65.971 63.9312 66.2485 62.9425 66.4688C62.6619 66.5324 62.3883 66.5923 62.1139 66.6565C63.0314 66.1574 63.9054 65.5768 64.7368 64.9445ZM84.6244 18.3638C85.0584 18.4472 85.4818 18.5611 85.8975 18.6929C86.3631 19.4966 86.6653 20.3436 86.7557 21.2997C86.8572 22.3931 86.7724 23.4933 86.5262 24.5625C86.0112 26.7903 84.9697 28.8991 84.0363 30.9757C82.3014 34.8373 79.8681 38.3153 77.5911 41.8696C77.3909 42.1838 77.1953 42.5009 76.9974 42.8166C77.9311 41.1478 79.0022 39.5598 79.7612 37.7972C80.5769 35.9048 81.0282 33.8443 81.1998 31.7933C81.5389 27.7322 80.6872 23.5261 78.7415 19.9416C78.6055 19.6924 78.4609 19.4493 78.3107 19.2075C78.3635 19.2028 78.4192 19.1934 78.4769 19.1755C79.1765 18.9669 79.8684 18.7261 80.5703 18.527C81.9372 18.1416 83.2305 18.0979 84.6248 18.3657L84.6244 18.3638ZM71.7555 62.3212C71.7674 62.3043 71.7817 62.2889 71.7955 62.2715C72.3943 61.4953 72.7795 60.6126 73.2206 59.7464C73.5961 59.006 74.0796 58.3236 74.4208 57.5654C74.7918 56.7401 75.0515 55.8597 75.3154 54.9962C75.5928 54.0895 75.8551 53.1784 76.1692 52.2828C76.4481 51.4817 76.8115 50.7162 77.1214 49.9276C77.4505 49.0944 77.6673 48.2263 77.9987 47.3945C78.323 46.5825 78.728 45.807 79.1907 45.0636C80.1673 43.4984 81.2367 41.9949 82.3526 40.5261C84.5279 37.6622 86.942 34.9588 88.7461 31.8324C89.6094 30.3365 90.3831 28.7343 90.7564 27.0385C91.0678 25.6177 91.1383 24.1429 91.1503 22.6822C91.6128 23.3567 91.9824 24.0855 92.2228 24.8674C92.6188 26.1538 92.8284 27.513 92.9373 28.8526C93.0237 29.9416 93.0364 31.0564 92.826 32.1329C92.4257 34.1811 91.3659 35.9403 89.8375 37.3485C88.7854 38.3179 87.694 39.2409 86.6554 40.2251C85.5987 41.2256 84.5017 42.1419 83.367 43.0512C82.2647 43.9368 81.2479 44.8957 80.4205 46.051C79.6532 47.1238 79.174 48.3631 78.7772 49.6126C78.3853 50.8408 78.027 52.067 77.4903 53.2422C76.9022 54.5278 76.31 55.8124 75.6472 57.0619C75.0094 58.2655 74.3137 59.461 73.4536 60.5221C72.9342 61.1632 72.3567 61.7543 71.7531 62.3197L71.7555 62.3212ZM62.55 67.9352C62.2885 67.8542 62.0276 67.7671 61.769 67.6815C62.1221 67.5784 62.4932 67.5169 62.8499 67.437C63.9733 67.1862 65.0975 66.8893 66.0965 66.2966C67.0097 65.7545 67.8062 65.0267 68.484 64.2134C69.7088 62.7484 70.5585 61.0719 71.2722 59.3121C72.1155 57.2351 72.8751 55.1264 73.5675 52.9958C73.9098 51.9434 74.2022 50.8831 74.4885 49.8143C74.768 48.767 75.0615 47.7445 75.578 46.7841C76.606 44.8766 77.8568 43.0634 79.0317 41.2425C80.2534 39.3503 81.4846 37.4638 82.6374 35.5262C83.7663 33.6304 84.6611 31.643 85.5289 29.6182C86.364 27.6732 87.2175 25.7137 87.4765 23.5936C87.669 22.0194 87.5081 20.4804 86.8991 19.0735C87.1823 19.2032 87.4607 19.346 87.73 19.5091C88.7099 20.1068 89.6394 20.8607 90.4147 21.7377C90.4031 23.7142 90.3603 25.7602 89.7548 27.6539C89.1663 29.4934 88.1866 31.2033 87.1182 32.8026C85.1339 35.7705 82.7259 38.4245 80.623 41.3069C79.5735 42.7437 78.5014 44.2198 77.6967 45.8096C76.9381 47.3082 76.5371 48.9386 75.8781 50.4772C75.1723 52.1291 74.7018 53.8443 74.1512 55.5507C73.8752 56.4051 73.5773 57.2268 73.1242 58.0019C72.705 58.7188 72.3255 59.4422 71.9566 60.185C71.5738 60.9532 71.1213 61.6481 70.5552 62.2945C69.9858 62.9436 69.4744 63.5848 68.9864 64.2983C68.7826 64.5974 68.5581 64.8775 68.3275 65.157C68.0598 65.3655 67.7925 65.5759 67.5239 65.7806C66.4613 66.5906 65.3297 67.2053 64.1174 67.7594C63.5607 68.0135 63.1431 68.1142 62.5505 67.929L62.55 67.9352ZM97.5891 157.99C97.2805 157.357 96.9775 156.722 96.6811 156.081C96.6651 155.965 96.6449 155.848 96.6308 155.732C96.486 154.409 96.494 153.073 96.4954 151.743C96.4961 150.269 96.4789 148.795 96.4316 147.321C96.3391 144.382 96.1514 141.445 95.9033 138.515C95.3989 132.556 94.6292 126.632 93.8077 120.709C93.4012 117.77 93.0193 114.824 92.5222 111.898C92.024 108.977 91.296 106.089 91.0118 103.134C90.7298 100.196 90.67 97.243 90.3587 94.3084C90.0475 91.3659 89.8426 88.4497 90.0135 85.4909C90.2161 82.0086 90.6858 78.5559 91.2718 75.1212C91.3666 78.1699 91.4577 81.2195 91.6733 84.2631C91.9159 87.6761 92.3061 91.0875 93.0321 94.432C93.7676 97.8242 94.9375 101.094 95.941 104.411C96.9418 107.718 97.684 111.104 98.4801 114.466C99.2322 117.636 99.979 120.81 100.573 124.014C101.161 127.184 101.607 130.386 101.721 133.612C101.836 136.898 101.559 140.178 101.058 143.424C100.811 145.03 100.47 146.613 100.157 148.207C99.8556 149.729 99.791 151.278 99.5997 152.816C99.5091 153.544 99.3761 154.27 99.1552 154.971C98.9168 155.725 98.5656 156.433 98.2723 157.166C98.1509 157.467 98.0578 157.761 97.986 158.061C97.9051 158.09 97.8274 158.133 97.7595 158.191C97.703 158.123 97.647 158.056 97.5905 157.988L97.5891 157.99ZM86.4829 118.179C85.9845 111.688 86.0201 105.157 86.3837 98.6579C86.7445 92.2059 87.4626 85.7678 88.5907 79.4048C89.1463 76.2753 89.8415 73.2022 90.8093 70.1734C90.9328 69.7897 91.0629 69.4084 91.1911 69.0275C91.1875 69.5603 91.19 70.0936 91.1907 70.6274C90.1133 76.1723 89.095 81.8209 89.0134 87.4817C88.9709 90.4415 89.3931 93.3553 89.6124 96.298C89.8348 99.262 89.8886 102.249 90.3342 105.193C90.7807 108.141 91.459 111.047 91.9135 113.995C92.3712 116.964 92.7575 119.944 93.1665 122.919C93.9853 128.889 94.7121 134.867 95.1467 140.877C95.3606 143.839 95.5042 146.808 95.5403 149.779C95.5562 151.065 95.5383 152.351 95.5769 153.632C93.2993 148.38 91.4489 142.95 89.9062 137.437C88.1402 131.13 86.9838 124.713 86.481 118.18L86.4829 118.179ZM71.4858 122.513C67.7322 118.663 63.7965 114.994 59.6232 111.6C57.6386 109.987 55.7058 108.323 53.7541 106.672C51.8141 105.027 49.7506 103.535 47.6981 102.038C45.6578 100.55 43.676 98.9898 41.6719 97.4531C39.5924 95.8606 37.4847 94.3008 35.4753 92.6174C34.5131 91.8115 33.5929 90.9554 32.6227 90.1574C31.6848 89.3855 30.7207 88.646 29.7628 87.899C28.788 87.1401 27.8209 86.3713 26.9023 85.5469C25.9331 84.6786 25.0292 83.7406 24.0634 82.8695C22.2342 81.2207 20.1845 79.7769 18.5618 77.9143C18.4101 77.7409 18.2597 77.5652 18.1098 77.3913C19.7261 78.0657 21.3439 78.7376 22.9737 79.3767C25.3385 80.3026 27.6264 81.3989 29.8553 82.6155C34.3685 85.0793 38.6488 87.9792 42.7869 91.0273C46.918 94.0711 50.8878 97.3338 54.6363 100.84C58.4442 104.401 62.0698 108.161 65.128 112.395C67.4633 115.63 69.5203 119.046 71.4877 122.513L71.4858 122.513ZM15.7098 76.394C15.8611 76.4575 16.0143 76.5206 16.1655 76.5841C16.2197 76.643 16.2758 76.7015 16.33 76.7604C17.2226 77.7591 18.0316 78.834 19.0045 79.7594C20.019 80.7247 21.1533 81.5731 22.2136 82.4874C23.2864 83.4127 24.3217 84.373 25.3361 85.3624C27.0808 87.0676 29.0574 88.507 30.9703 90.0137C32.9029 91.5356 34.7035 93.2154 36.6332 94.742C40.6055 97.8821 44.662 100.924 48.7493 103.91C50.7929 105.403 52.7524 106.971 54.6654 108.628C56.6079 110.307 58.65 111.869 60.6269 113.508C64.6133 116.815 68.3615 120.411 71.9487 124.143C72.1006 124.301 72.2902 124.291 72.4324 124.201C72.5564 124.425 72.6819 124.647 72.8054 124.869C72.2205 124.4 71.6212 123.946 71.0028 123.53C68.6652 121.953 65.9544 120.969 63.3616 119.902C58.1206 117.745 53.2408 114.864 48.5654 111.677C43.9885 108.559 39.4439 105.293 35.496 101.391C33.4489 99.3689 31.6308 97.1354 29.8288 94.8941C28.012 92.6323 26.2468 90.3281 24.5514 87.9731C22.8314 85.5821 21.2417 83.1016 19.413 80.7907C18.5052 79.6457 17.5669 78.524 16.6273 77.4047C16.3467 77.0704 16.0157 76.7422 15.706 76.3949L15.7098 76.394Z" fill="#E5C267"/>
</g>
<defs>
<clipPath id="clip0_5_66">
<rect width="92" height="197.626" fill="white" transform="translate(0 21.5547) rotate(-13.5498)"/>
</clipPath>
</defs>
</svg>
