<svg width="112" height="191" viewBox="0 0 112 191" fill="none" xmlns="http://www.w3.org/2000/svg">
<path d="M7.22651 121.092C9.01606 122.236 10.7288 123.508 12.3056 124.933C13.8806 126.357 15.3211 127.937 16.4972 129.712C17.6768 131.49 18.5787 133.423 19.3543 135.407C20.1481 137.436 20.8165 139.514 21.5174 141.578C22.2752 143.805 23.1039 146.008 23.8659 148.235C24.5947 150.365 25.3364 152.443 26.3791 154.444C27.3417 156.288 28.4473 158.058 29.702 159.716C31.1112 161.575 32.698 163.309 34.491 164.804C35.3451 165.516 36.2503 166.175 37.1758 166.795C37.8888 167.272 38.6787 167.705 39.527 167.853C38.357 172.894 36.8534 177.856 34.9534 182.622C34.0455 184.896 33.0771 187.146 32.1086 189.395C31.6488 190.466 33.256 191.306 33.7186 190.232C35.6072 185.839 37.4997 181.436 38.9388 176.872C39.9466 173.676 40.7711 170.415 41.4866 167.134C41.5867 167.009 41.6765 166.876 41.7579 166.746C41.8569 166.589 41.9418 166.423 42.032 166.261C42.0413 166.245 42.0788 166.181 42.1014 166.139C42.1235 166.11 42.1496 166.072 42.1546 166.067C42.2131 165.997 42.2716 165.928 42.3321 165.859C43.1098 164.997 44.1508 164.509 45.1322 163.926C47.3477 162.61 49.4729 161.119 51.5969 159.662C52.6564 158.935 53.7174 158.212 54.7964 157.516C55.8573 156.83 56.9311 156.159 57.9353 155.393C59.7533 154.008 61.3123 152.316 62.6686 150.48C64.0129 148.664 65.1861 146.725 66.2545 144.737C67.5029 142.415 68.5214 139.976 69.5652 137.559C70.6234 135.111 71.6338 132.645 72.4568 130.105C73.2512 127.653 73.9133 125.159 74.7373 122.717C75.5333 120.361 76.5335 118.102 77.8205 115.974C78.9672 114.076 80.3437 112.249 82.0598 110.829C82.4942 110.47 82.9523 110.14 83.4254 109.832C84.0094 109.453 83.7386 108.327 82.9762 108.459C81.9493 108.637 81.0737 109.19 80.1344 109.612C79.1071 110.073 78.0813 110.537 77.0683 111.025C75.0751 111.987 73.1556 113.052 71.3293 114.307C69.5049 115.562 67.746 116.921 66.011 118.299C64.2373 119.708 62.4887 121.169 60.885 122.773C57.7653 125.894 55.0226 129.481 52.584 133.155C50.0867 136.918 48.0185 140.947 46.2539 145.103C45.4436 147.011 44.7032 148.945 44.016 150.9C44.5111 145.485 44.6919 140.04 44.675 134.58C44.6703 133.015 44.6401 131.449 44.6014 129.885C44.6055 129.866 44.6091 129.849 44.6094 129.829C44.6867 128.431 44.8662 127.049 45.2759 125.708C45.694 124.336 46.2114 122.994 46.7895 121.684C47.9277 119.103 49.4863 116.717 51.2878 114.557C51.7874 113.956 52.3021 113.368 52.8134 112.777C52.961 112.606 53.1209 112.397 53.286 112.2C53.7414 112.812 54.4094 113.191 55.292 112.971C55.731 112.862 56.1546 112.61 56.5215 112.279C57.3351 111.576 57.8043 110.461 58.0401 109.443C58.3239 108.217 58.1881 106.792 57.1224 105.979C56.5556 105.545 55.7231 105.219 54.9984 105.267C54.4128 105.306 53.9414 105.634 53.5851 106.066C53.5658 106.082 53.547 106.096 53.5296 106.112C53.0292 106.238 52.5909 106.578 52.3301 107.104C51.9809 107.803 51.8684 108.672 51.8995 109.445C51.9204 109.985 52.0929 110.533 52.3677 111.021C52.2836 111.183 52.2029 111.347 52.0952 111.508C51.6937 112.106 51.1506 112.64 50.6856 113.191C49.7226 114.335 48.8226 115.52 48.0004 116.77C46.4941 119.059 45.3272 121.522 44.417 124.098C44.2617 120.004 44.0804 115.911 44.0133 111.814C44.0662 111.734 44.1098 111.641 44.1356 111.529C44.6453 109.246 45.1186 106.948 45.8544 104.725C46.5574 102.601 47.579 100.598 48.918 98.8069C50.2178 97.0691 51.7411 95.5166 53.3272 94.0432C55.0199 92.4706 56.6826 90.8237 58.5823 89.5047C59.6604 88.7565 60.7861 88.0844 61.8706 87.3436C62.4086 86.9743 62.9485 86.6054 63.4937 86.2495C63.5653 86.2028 63.6388 86.1565 63.7123 86.1101C64.2246 86.726 64.936 87.1824 65.6937 87.4009C66.8731 87.7428 68.0891 87.4054 69.1764 86.9048C69.564 86.8132 69.9442 86.6721 70.2999 86.4779C71.8282 85.6434 72.4413 83.8399 71.9907 82.2005C71.9249 81.9569 71.8307 81.7252 71.7185 81.5037C71.6219 81.2175 71.4927 80.9445 71.3227 80.6947C70.522 79.5144 69.0492 78.9885 67.6641 79.1383C66.8877 79.2234 66.1729 79.4593 65.541 79.8587C65.389 79.9183 65.2373 79.9861 65.0927 80.0673C64.2994 80.5143 63.6472 81.2908 63.2944 82.1288C63.0572 82.6937 62.9169 83.2991 62.9176 83.9064C62.8483 84.1394 62.787 84.3721 62.733 84.6083C62.0104 85.0783 61.3013 85.5691 60.5907 86.0576C59.6332 86.7155 58.6372 87.3113 57.6842 87.9761C55.7193 89.3492 54.0075 91.0496 52.2587 92.6802C48.9724 95.7426 46.0863 99.1614 44.5436 103.444C44.3555 103.966 44.1883 104.491 44.0287 105.019C44.1341 100.493 44.4343 95.9411 45.1856 91.4766C45.978 86.7711 47.2594 82.1433 48.545 77.5524C48.7086 77.4193 48.9077 77.3157 49.0793 77.2102C49.5518 76.9249 49.9586 76.5737 50.3351 76.1682C50.9876 75.4656 51.6345 74.7519 52.4628 74.2524C53.2292 73.7917 54.1802 73.6717 55.0423 73.5009C56.1932 73.2735 57.3372 73.0126 58.484 72.7664C60.705 72.2884 62.9295 71.8312 65.1656 71.4324C67.366 71.0419 69.5681 70.6438 71.7437 70.1263C75.9824 69.1154 79.9707 67.4921 83.6401 65.1201C87.2475 62.7869 90.4922 59.9394 93.0777 56.4928C94.5595 54.516 95.8687 52.4147 97.0845 50.2657C97.7363 49.1156 98.3688 47.9534 99.0456 46.8166C99.701 45.7152 100.465 44.6648 100.931 43.4632C101.064 43.1179 101.069 42.7616 100.811 42.4672C100.584 42.2073 100.19 42.0578 99.8489 42.1913C99.02 42.5149 98.4872 43.2069 97.8386 43.7785C97.0163 44.503 96.1324 45.1705 95.2473 45.8157C93.5603 47.042 91.7921 48.1352 89.8451 48.889C87.8389 49.6681 85.7403 50.16 83.655 50.6647C81.4413 51.2021 79.2176 51.7115 77.0149 52.2912C73.1957 53.2952 69.4652 54.6316 65.9471 56.4404C62.3686 58.2804 59.0962 60.6386 56.2148 63.4533C54.5079 65.1207 52.9132 66.9258 51.5461 68.887C51.3693 69.1391 51.1997 69.3948 51.0334 69.6532C51.7166 67.7727 52.4679 65.9187 53.3275 64.1075C55.324 59.909 57.7196 55.8749 60.1786 51.9361C61.8788 49.2106 63.6402 46.5161 65.4512 43.8501C66.0939 43.3252 66.7306 42.7911 67.3559 42.2445C67.493 42.1238 67.52 41.9118 67.4668 41.7308C67.5105 41.722 67.5541 41.7133 67.5979 41.6946C68.4107 41.3716 69.0557 40.8452 69.7006 40.2629C70.5127 39.5302 71.3637 38.9237 72.2758 38.3201C73.2715 37.6603 74.2698 37.2607 75.4045 36.912C76.5925 36.5467 77.7287 36.0505 78.8805 35.5836C83.2425 33.8218 87.6725 32.2183 91.902 30.1428C95.6892 28.2851 99.4299 26.1679 101.942 22.6757C104.456 19.1801 105.643 15.0057 107.564 11.1926C108.495 9.34278 109.647 7.62141 110.588 5.78167C111.219 4.55126 112.179 2.45386 111.123 1.19334C110.252 0.155911 108.704 0.594768 107.631 1.01654C106.112 1.61318 104.623 2.36227 103.171 3.10908C95.1999 7.20365 88.1703 13.0997 82.0476 19.6093C75.8351 26.2138 70.4541 33.5438 65.2867 40.983C62.6173 44.8253 60.0142 48.7115 57.5771 52.7069C56.5768 54.3463 55.5884 56.0043 54.6373 57.6842C55.1286 56.0986 55.5826 54.5011 55.9628 52.886C56.3753 51.1279 56.7239 49.3423 56.8669 47.5411C57.0075 45.7414 56.9393 43.9413 57.0081 42.1423C57.0762 40.4031 57.5719 38.7126 57.661 36.9779C57.6767 36.6876 57.6451 36.3393 57.7534 36.0627C57.8398 35.8433 58.0606 35.6744 58.2451 35.5178C58.8274 35.0241 59.334 34.5123 59.7789 33.8875C60.6932 32.5974 61.3488 31.1385 61.7227 29.5999C62.0009 28.4565 62.1016 27.2115 61.7974 26.0645C61.648 25.5016 61.3629 25.0157 60.9837 24.6357C60.8188 24.3431 60.6519 24.0601 60.3651 23.8355C59.8075 23.3957 59.0232 23.1616 58.3275 23.082C57.6494 23.0042 56.897 23.0045 56.2516 23.2512C55.706 23.4591 55.2409 23.7939 54.8032 24.1785C54.0129 24.8738 53.3253 25.7986 52.8528 26.7411C52.2339 27.9801 52.1145 29.4448 52.2363 30.8048C52.3408 31.9734 52.6019 33.1173 53.273 34.0924C53.7826 34.8336 54.2991 35.674 55.0881 36.1489C55.3421 36.3026 55.6279 36.3911 55.9131 36.3976C55.9106 36.4091 55.9101 36.421 55.9092 36.4348C55.8691 37.0654 55.8205 37.6703 55.7288 38.3C55.5032 39.824 55.271 41.3327 55.266 42.8776C55.2617 44.3906 55.285 45.9055 55.1917 47.4157C55.0977 48.9297 54.8224 50.4352 54.5175 51.9205C53.8968 54.9427 53.0587 57.9108 52.1308 60.8519C51.8979 61.5935 51.6594 62.3339 51.4232 63.0727C51.3601 63.2671 51.4259 63.4728 51.552 63.6293C51.2379 64.3038 50.9329 64.9821 50.6442 65.6679C49.0966 69.3445 47.8973 73.1528 46.821 76.9912C46.7994 77.0365 46.7759 77.0815 46.7574 77.1315C46.7109 77.2475 46.6877 77.3664 46.682 77.487C46.5206 78.07 46.3608 78.6553 46.2032 79.239C44.8901 84.1098 43.6017 88.9957 42.9938 94.0139C42.7237 96.2456 42.5389 98.4794 42.4155 100.714C42.3839 100.544 42.3562 100.374 42.3223 100.205C41.8253 97.6391 41.0384 95.2013 40.0668 92.7803C39.5923 91.6012 39.0836 90.4328 38.6263 89.2474C38.1724 88.0746 37.893 86.8949 37.7558 85.6454C37.4661 83.0215 37.3429 80.3729 37.1809 77.738C37.0178 75.099 36.8395 72.4567 36.4795 69.8358C36.1127 67.1716 35.5952 64.5333 35.2553 61.8647C34.9321 59.3235 34.5545 56.8048 33.7967 54.3512C33.0791 52.028 32.0962 49.7824 30.9051 47.6645C29.7145 45.5446 28.2773 43.5922 26.5829 41.8489C25.7462 40.9885 24.8516 40.1857 23.9062 39.444C23.3088 38.9759 22.7958 38.3538 22.0986 38.0282C21.6334 37.8098 21.1913 37.792 20.7328 38.0303C20.4775 38.164 20.3729 38.4794 20.3719 38.7468C20.3682 41.2526 21.0724 43.6489 21.7104 46.0471C22.3492 48.4514 23.1189 50.8296 23.6424 53.2614C24.1969 55.8377 24.2478 58.4989 24.2862 61.1255C24.3246 63.7801 24.2867 66.4284 24.1941 69.0812C24.1005 71.7198 23.9924 74.3613 24.0459 77.0011C24.0725 78.331 24.1373 79.6589 24.2671 80.9807C24.3941 82.2879 24.6849 83.5919 24.9875 84.8684C25.2895 86.1388 25.5982 87.4146 25.9868 88.6614C26.3819 89.9335 26.8843 91.1405 27.484 92.3302C28.5901 94.53 29.8828 96.6755 31.4789 98.5538C32.2166 99.4212 33.0198 100.233 33.894 100.963C34.8558 101.768 35.9135 102.45 36.9079 103.214C37.9363 104.005 38.9939 104.818 39.871 105.779C40.2618 106.208 40.611 106.673 40.9467 107.146C41.2655 107.595 41.6113 108.048 41.8905 108.524C41.9098 108.564 41.9323 108.599 41.9544 108.636C42.032 108.786 42.0082 108.927 42.0869 109.175C42.1182 109.272 42.1599 109.356 42.2082 109.438C42.2258 114.182 42.4156 118.93 42.5996 123.676C42.7002 126.244 42.7815 128.818 42.8308 131.393C41.8485 127.53 40.4403 123.76 38.7845 120.191C37.9933 118.488 37.137 116.818 36.2789 115.148C35.5051 113.644 34.8244 112.076 33.8102 110.71C33.2729 109.987 32.6553 109.323 32.045 108.662C31.8912 108.496 31.7378 108.328 31.584 108.161C31.5516 108.126 31.5114 108.072 31.497 108.065C31.4903 107.984 31.5186 107.888 31.532 107.759C31.5587 107.511 31.5736 107.262 31.5606 107.014C31.4784 105.382 30.5429 103.918 29.5072 102.72C28.5231 101.578 27.1562 100.759 25.635 100.631C24.7903 100.559 24.0431 100.761 23.4101 101.343C22.8708 101.84 22.5557 102.566 22.4359 103.282C21.9806 105.984 23.3233 109.518 26.2993 110.013C27.6395 110.235 29.0086 109.71 29.8112 108.628C30.0233 109.214 30.5164 109.649 30.9413 110.104C31.9325 111.165 32.782 112.256 33.4853 113.529C34.1856 114.798 34.8267 116.103 35.4982 117.386C36.2077 118.742 36.9034 120.108 37.5438 121.5C39.9714 126.77 41.951 132.455 42.6391 138.241C42.7226 138.946 42.7858 139.652 42.833 140.359C42.7389 144.766 42.483 149.165 41.9788 153.544C41.7611 155.426 41.5052 157.309 41.2101 159.19C41.0312 157.001 40.6694 154.839 40.2672 152.68C39.8276 150.322 39.3192 147.969 38.4896 145.714C37.6788 143.511 36.609 141.403 35.396 139.398C32.9327 135.329 29.9335 131.591 26.6767 128.139C25.0192 126.381 23.2967 124.686 21.5401 123.029C19.8359 121.426 18.0443 119.888 16.0099 118.715C13.8158 117.451 11.3179 116.644 8.82184 116.251C6.26061 115.846 3.58495 115.868 1.0694 116.543C0.710349 116.641 0.467499 117.045 0.488712 117.405C0.512155 117.801 0.800226 118.076 1.16095 118.186C1.64155 118.332 2.14164 118.414 2.61113 118.594C3.17453 118.809 3.72116 119.085 4.25594 119.36C5.27543 119.883 6.26279 120.474 7.22842 121.092L7.22651 121.092ZM75.4532 30.1375C80.8414 23.2624 86.7722 16.738 93.6977 11.3892C97.1727 8.70435 100.861 6.26859 104.795 4.31404C106.096 3.66714 107.499 2.89988 108.903 2.50047C109.087 2.44767 109.506 2.29471 109.697 2.3711C109.71 2.37584 109.719 2.37786 109.727 2.37947C109.727 2.39557 109.734 2.42093 109.752 2.46672C110.047 3.18834 109.156 4.62132 108.833 5.2259C107.877 7.0126 106.78 8.70544 105.873 10.5226C104.892 12.4856 104.104 14.5198 103.243 16.5362C101.696 20.1511 99.6324 23.4006 96.3032 25.5951C92.562 28.0617 88.4226 29.8626 84.2673 31.4945C82.0395 32.3705 79.8133 33.2488 77.5945 34.1486C75.9022 34.8365 74.1065 35.2987 72.4745 36.1152C73.1507 35.2539 73.8371 34.4007 74.5541 33.572C76.1338 31.7438 77.854 30.1071 79.7686 28.6335C81.6168 27.2097 83.5526 25.9083 85.4118 24.4988C87.306 23.0648 89.2325 21.6756 91.1331 20.2489C93.2912 18.6311 95.4008 16.9412 97.2353 14.9532C97.5295 14.6361 97.0473 14.2063 96.7431 14.5054C93.2943 17.9028 89.2625 20.5574 85.4351 23.4871C83.582 24.9059 81.6552 26.2212 79.7964 27.6287C77.9184 29.0522 76.1669 30.5924 74.5952 32.3544C73.2141 33.9032 71.9323 35.5369 70.6816 37.1932C70.285 37.4587 69.8925 37.733 69.5196 38.0275C71.4476 35.3543 73.4271 32.72 75.4541 30.1337L75.4532 30.1375ZM56.3542 65.584C59.1435 62.7159 62.3327 60.2901 65.8444 58.38C69.2054 56.5518 72.8141 55.2176 76.4944 54.2021C78.6025 53.6183 80.7402 53.1387 82.8691 52.6353C84.9834 52.1347 87.1171 51.6742 89.1835 50.9957C91.4425 50.2542 93.5256 49.1778 95.4848 47.8314C96.009 47.4712 96.5204 47.0962 97.0281 46.7105C96.6512 47.3616 96.2812 48.0182 95.9134 48.6733C94.8375 50.5943 93.7266 52.5019 92.4539 54.2994C91.2516 55.9999 89.9276 57.6167 88.4349 59.0719C86.9222 60.5469 85.2399 61.8541 83.4992 63.043C81.7496 64.236 79.9056 65.3112 77.9709 66.1754C76.014 67.0508 73.9684 67.7058 71.8932 68.2286C69.78 68.7614 67.6375 69.1601 65.4926 69.5423C63.1903 69.9531 60.8979 70.4019 58.6107 70.8918C57.3306 71.1657 56.0542 71.4504 54.7742 71.7144C53.8832 71.899 52.9927 72.0438 52.1566 72.3919C52.1779 72.3664 52.1977 72.3387 52.2214 72.3117C53.0037 71.391 53.9651 70.6301 54.9752 69.9774C57.114 68.5912 59.5305 67.7073 61.9514 66.9621C64.3447 66.2251 66.774 65.6096 69.1619 64.8514C71.5183 64.1006 73.841 63.2367 76.067 62.1527C78.602 60.9164 80.9667 59.3944 83.1005 57.5437C83.3838 57.2962 82.9659 56.7982 82.6724 57.0376C78.7448 60.2616 74.1407 62.3675 69.349 63.9404C64.5359 65.5206 59.3327 66.4151 54.9569 69.0967C53.8156 69.7955 52.7154 70.6288 51.8198 71.6334C51.4698 72.0266 51.1637 72.4471 50.8891 72.8882C51.3366 72.0163 51.8232 71.1667 52.372 70.3523C53.5252 68.6394 54.9216 67.0659 56.3576 65.5867L56.3542 65.584ZM33.8218 98.4492C32.1668 96.7921 30.8967 94.8312 29.7492 92.7984C29.1428 91.7251 28.5452 90.6198 28.1246 89.4581C27.6905 88.2575 27.3239 87.0294 27.0319 85.7871C26.7468 84.5782 26.4225 83.385 26.204 82.1622C25.974 80.8811 25.8898 79.579 25.8307 78.2802C25.7135 75.6689 25.7743 73.0533 25.8538 70.4437C25.9321 67.8298 26.0158 65.2191 25.9793 62.6029C25.9442 59.9889 25.9428 57.3382 25.5461 54.7495C25.1679 52.2805 24.4035 49.9055 23.7084 47.5132C23.3679 46.3405 23.0511 45.1588 22.7339 43.9791C22.42 42.812 22.1299 41.6361 21.9972 40.4315C21.9796 40.27 21.9655 40.1112 21.9579 39.9498C22.1369 40.1196 22.3136 40.2908 22.4972 40.4576C23.3052 41.1901 24.1518 41.8629 24.9226 42.6394C26.5628 44.2913 27.939 46.1649 29.1111 48.175C30.2721 50.1628 31.2165 52.2704 31.9305 54.461C32.6716 56.7392 33.0783 59.0644 33.3791 61.439C33.7097 64.0297 34.1712 66.5942 34.5591 69.1771C34.945 71.7416 35.1469 74.3289 35.3125 76.9186C35.4743 79.4415 35.6305 81.9633 35.829 84.482C35.9303 85.7598 36.0617 87.046 36.3919 88.2864C36.7097 89.4822 37.2233 90.6177 37.6941 91.7581C38.764 94.3537 39.8074 96.9617 40.3892 99.7194C40.6333 100.878 40.8399 102.044 41.03 103.213C40.9885 103.174 40.9473 103.133 40.9077 103.095C40.0318 102.288 39.078 101.577 38.2517 100.714C36.5756 98.969 35.5768 96.5922 34.7055 94.3643C33.8066 92.0606 32.9284 89.7153 32.2209 87.3444C31.484 84.8773 30.9502 82.3534 30.5269 79.8149C30.0543 76.9744 29.7216 74.1117 29.3886 71.2509C29.3407 70.8292 28.6803 70.865 28.7293 71.2909C29.3157 76.4963 29.9108 81.7356 31.3018 86.798C31.9861 89.2879 32.881 91.7326 33.7812 94.1524C34.6344 96.4464 35.5991 98.8998 37.1878 100.794C37.7296 101.441 38.343 102.002 38.9711 102.551C37.2499 101.187 35.3817 100.01 33.8237 98.4496L33.8218 98.4492ZM40.662 104.048C40.8553 104.234 41.05 104.423 41.2503 104.606C41.2527 104.622 41.2548 104.641 41.2592 104.657C41.0669 104.447 40.8643 104.248 40.6639 104.048L40.662 104.048ZM52.7183 135.366C55.0274 131.693 57.703 128.188 60.647 125.003C63.6019 121.805 67.0846 119.111 70.5909 116.551C72.5172 115.144 74.5145 113.872 76.646 112.801C77.4257 112.409 78.2147 112.039 79.0093 111.681C78.5593 112.188 78.1313 112.715 77.7324 113.263C76.3038 115.224 75.1005 117.351 74.1643 119.59C73.171 121.965 72.4374 124.44 71.6887 126.902C70.9341 129.383 70.1085 131.822 69.1097 134.215C67.1911 138.816 65.227 143.452 62.495 147.637C61.2871 149.486 59.9076 151.243 58.2935 152.754C56.5331 154.402 54.4097 155.584 52.4204 156.922C50.2783 158.361 48.1496 159.822 45.994 161.24C44.946 161.931 43.8547 162.534 42.7842 163.19C42.5945 163.306 42.407 163.43 42.2221 163.561C42.2657 163.336 42.3108 163.114 42.3544 162.89C42.4217 162.534 42.4868 162.181 42.5499 161.826C44.2789 158.806 46.0914 155.832 48.0581 152.958C49.3704 151.039 50.7891 149.2 52.1597 147.326C53.5288 145.449 54.8612 143.548 56.1576 141.62C57.6088 139.459 59.0218 137.272 60.3817 135.053C60.6065 134.688 60.0249 134.398 59.7972 134.75C57.2358 138.665 54.6152 142.539 51.8732 146.33C50.5299 148.189 49.1279 150.005 47.8191 151.888C46.5017 153.784 45.2555 155.729 44.0624 157.705C43.6788 158.341 43.301 158.978 42.9262 159.619C43.0531 158.823 43.1758 158.028 43.2871 157.231C45.5141 149.598 48.4829 142.108 52.7171 135.372L52.7183 135.366ZM14.169 119.785C16.1861 120.776 17.94 122.182 19.5922 123.693C21.2878 125.243 22.9315 126.859 24.5304 128.509C27.7509 131.832 30.7068 135.398 33.2118 139.299C34.4225 141.183 35.5188 143.147 36.3747 145.222C37.2558 147.356 37.8421 149.586 38.3 151.848C38.8243 154.436 39.273 157.051 39.4705 159.688C39.5652 160.94 39.6332 162.197 39.5404 163.451C39.4975 164.03 39.4543 164.6 39.4451 165.169C39.3167 165.08 39.1906 164.989 39.0705 164.908C38.2777 164.366 37.4431 163.872 36.7625 163.186C36.0716 162.493 35.5474 161.594 35.0681 160.748C34.5772 159.881 34.142 158.986 33.7244 158.082C31.9154 154.176 30.0625 150.288 28.2777 146.37C27.2208 144.051 26.1793 141.725 25.1424 139.396C24.9688 139.004 24.3277 139.211 24.5043 139.608C26.4261 143.922 28.352 148.235 30.3417 152.52C31.2685 154.514 32.1929 156.509 33.1108 158.507C33.9346 160.302 34.8128 162.272 36.195 163.713C36.9644 164.515 37.9441 165.076 38.85 165.704C38.8864 165.73 38.9231 165.753 38.9595 165.779C38.5856 165.59 38.2184 165.35 37.9017 165.135C37.1483 164.624 36.4008 164.066 35.6976 163.478C34.1636 162.198 32.7697 160.746 31.5369 159.172C30.2521 157.534 29.1197 155.778 28.1279 153.95C27.0972 152.052 26.3578 150.075 25.6581 148.034C24.8983 145.815 24.061 143.625 23.2951 141.407C22.5801 139.334 21.9066 137.244 21.1118 135.2C20.3311 133.193 19.4244 131.217 18.2763 129.394C17.1327 127.578 15.7199 125.924 14.1731 124.442C12.4361 122.777 10.5044 121.327 8.49195 120.014C7.44121 119.328 6.37025 118.671 5.25832 118.086C5.06858 117.986 4.87571 117.891 4.68284 117.796C7.94182 117.67 11.2653 118.367 14.1674 119.793L14.169 119.785Z" fill="#E5C267"/>
</svg>
