<svg class="flor-inf-princ" width="114" height="190" viewBox="0 0 114 190" fill="none" xmlns="http://www.w3.org/2000/svg">
<g opacity="0.7" clip-path="url(#clip0_5_68)">
<path d="M109.636 63.9059C108.954 63.1035 107.903 62.7649 106.879 62.6815C105.537 62.5729 104.163 62.7667 102.855 63.0583C101.41 63.3788 100.006 63.8443 98.644 64.4221C95.7565 65.6464 92.9635 67.1624 90.3469 68.8866C87.8121 70.5565 85.5355 72.5815 83.3771 74.7078C82.3243 75.7456 81.2933 76.7997 80.3587 77.9462C79.9877 78.4008 79.6349 78.8681 79.2895 79.3408C81.0896 74.3039 82.4498 69.1094 84.0154 63.9965C84.8591 61.2471 85.7555 58.5195 86.5938 55.781C86.6102 55.7628 86.6265 55.7447 86.6411 55.7248C86.8411 55.4332 86.992 55.1289 87.1484 54.812C87.2884 54.5294 87.4793 54.2885 87.6775 54.044C88.1267 53.4898 88.6158 52.9573 89.1213 52.4538C90.0068 51.57 91.0815 50.8853 92.1216 50.1971C93.1453 49.5197 94.1072 48.7699 95.1073 48.0599C96.0638 47.3825 97.0566 46.7613 98.0694 46.1708C102.097 43.8217 106.458 41.9453 110.036 38.9044C111.533 37.6329 113.205 36.0898 113.833 34.1681C114.191 33.0706 114.022 31.8806 112.865 31.3463C112.384 31.1236 111.84 31.062 111.314 31.0402C110.687 31.0149 110.063 31.0276 109.44 31.1054C106.768 31.4423 104.263 32.6015 101.935 33.8947C99.6605 35.1589 97.593 36.6947 95.7183 38.4932C93.8363 40.299 92.2034 42.3221 90.7306 44.4665C90.0905 45.3993 89.4613 46.3411 88.8577 47.2974C89.194 45.7198 89.4795 44.1278 89.6832 42.5122C89.8268 41.3803 89.8941 40.2501 89.9159 39.1235C89.9687 39.0674 90.0123 38.9986 90.0323 38.9134C90.0632 38.7776 90.0978 38.6436 90.1341 38.5114C90.1432 38.4806 90.1523 38.4498 90.1614 38.419C90.1687 38.3936 90.1723 38.3846 90.1705 38.39L90.1814 38.352C90.1814 38.352 90.1832 38.3447 90.185 38.3411C90.1905 38.323 90.196 38.3049 90.2014 38.2868C90.2105 38.256 90.2214 38.227 90.2305 38.1962C90.3178 37.9336 90.4178 37.6764 90.5324 37.4246C90.5487 37.3884 90.5578 37.3486 90.5633 37.3087C90.5687 37.2997 90.5742 37.2906 90.5796 37.2816C90.6269 37.2001 90.676 37.1186 90.7269 37.0389C90.7306 37.0316 90.7796 36.9555 90.7669 36.9755C90.7906 36.9392 90.8142 36.903 90.8378 36.865C90.9088 36.7545 90.9506 36.6531 90.9415 36.5209C90.9342 36.4176 90.8851 36.3253 90.8142 36.2546C91.5834 35.1081 92.0598 33.6737 92.4253 32.3968C92.7344 31.3173 92.9562 30.2687 93.4072 29.2327C93.8818 28.1423 94.3818 27.0629 94.9037 25.9943C96.9766 21.7471 98.1422 17.1702 100.037 12.8524C100.97 10.7279 101.924 8.62689 102.564 6.38827C103.086 4.56079 103.795 1.57959 101.935 0.237503C101.281 -0.235215 100.788 0.0726855 100.142 0.41681C99.2641 0.885905 98.4313 1.43107 97.6494 2.04687C96.1911 3.19335 94.8946 4.5463 93.7381 5.98981C91.3106 9.0181 89.1359 12.4938 88.1685 16.2737C87.0629 20.597 87.3593 25.1684 87.7921 29.5623C88.0176 31.8426 88.2994 34.1211 88.3958 36.414C88.4958 38.7704 88.3121 41.0941 87.9685 43.4251C87.7139 45.1511 87.383 46.8627 86.9938 48.5634C86.8029 47.0982 86.4374 45.6438 85.9901 44.2419C84.9518 40.9963 83.2117 37.8303 80.515 35.6642C79.1349 34.5557 77.5257 33.8476 75.7327 33.8928C74.3344 33.9273 72.4979 34.3927 72.1542 35.9648C71.9706 36.807 72.3542 37.6311 72.7325 38.3592C73.1689 39.1978 73.6162 40.0273 74.1162 40.8297C75.1163 42.4307 76.2783 43.9376 77.5093 45.3685C78.8931 46.9768 80.415 48.433 81.9279 49.9182C82.6316 50.6082 83.3208 51.3309 83.8717 52.1513C84.3263 52.8305 84.7118 53.6329 84.5772 54.466C84.5518 54.6236 84.5718 54.7613 84.6191 54.8808C84.5991 55.6198 84.5445 56.3605 84.4627 57.0959C84.419 57.382 84.3772 57.6682 84.3354 57.9544C82.9625 62.2378 81.6388 66.5249 80.3677 70.8391C79.0549 75.3 77.6457 79.7465 75.7364 83.9937C75.86 82.9885 75.9473 81.9797 75.9873 80.969C76.0892 78.379 75.8237 75.8651 75.1272 73.3639C74.4835 71.0492 73.5216 68.845 72.4452 66.7024C71.4651 64.7481 70.3959 62.8156 68.8557 61.238C67.4956 59.8452 65.49 58.6553 63.4607 58.8998C62.3824 59.0284 61.4277 59.7022 61.0495 60.7363C60.6659 61.7886 60.8531 62.9134 61.1932 63.9512C61.5241 64.9618 62.0096 65.9236 62.466 66.8817C63.0443 68.0933 63.648 69.2942 64.2571 70.4914C65.4754 72.8857 66.721 75.2674 67.8484 77.7071C68.403 78.9097 68.9357 80.1232 69.414 81.3584C69.654 81.9797 69.9049 82.6081 70.0722 83.2529C70.2268 83.8452 70.305 84.4592 70.3886 85.0641C70.5668 86.3555 70.905 87.6251 71.0432 88.9201C71.1832 90.226 71.0323 91.5626 70.8468 92.8558C70.8068 93.1347 70.7905 93.4553 70.7323 93.7596C70.2886 94.5384 69.8413 95.3118 69.3849 96.0815C64.7117 103.955 59.1875 111.218 53.1451 118.091C52.8851 118.386 52.6233 118.681 52.3632 118.977C53.4888 116.702 54.2907 114.257 54.8017 111.777C55.3744 108.993 55.5908 106.139 55.4363 103.303C55.3581 101.872 55.1926 100.446 54.9399 99.0355C54.7162 97.7931 54.5707 96.5995 53.8998 95.5001C53.6016 95.0129 53.1997 94.6054 52.8597 94.1526C52.5033 93.6781 52.0487 93.2923 51.5232 93.0134C50.4358 92.4338 49.0338 92.3595 47.8483 92.6258C47.2082 92.7689 46.6118 92.9753 46.1008 93.3973C45.6681 93.7523 45.3117 94.1888 45.0662 94.6923C44.7916 95.2538 44.7425 95.837 44.628 96.4383C44.4861 97.1809 44.377 97.9289 44.3079 98.6824C44.1734 100.137 44.1497 101.609 44.3352 103.06C44.5134 104.456 44.848 105.827 45.1971 107.189C45.5371 108.512 45.9135 109.823 46.1281 111.172C46.3499 112.563 46.4227 113.974 46.3008 115.378C46.1736 116.839 45.9026 118.287 45.6353 119.726C45.3826 121.085 44.9116 122.382 44.3279 123.631C43.7206 124.935 43.0133 126.191 42.2859 127.431C41.9259 128.043 41.5604 128.652 41.1985 129.264C40.8731 129.813 40.6003 130.409 40.2094 130.916C40.0439 131.131 39.8439 131.213 39.6293 131.371C39.5147 131.454 39.4256 131.548 39.3456 131.66C39.3147 131.704 39.2693 131.753 39.2402 131.803C39.2838 131.787 39.3565 131.778 39.4766 131.789C39.3893 131.782 39.3093 131.789 39.2365 131.809C39.2256 131.829 39.2184 131.849 39.2147 131.867C39.2074 131.927 39.1347 131.854 39.2202 131.811C38.8801 131.907 38.7274 132.26 38.8092 132.56C38.5965 132.743 38.3855 132.926 38.171 133.107C36.4508 134.562 34.8961 136.25 33.3487 137.884C30.2593 141.144 27.3354 144.572 24.4424 148.006C21.5276 151.464 18.7218 155.017 16.1652 158.745C15.0942 160.306 14.0632 161.894 13.0649 163.503C13.6214 162.016 14.145 160.516 14.6269 159.002C15.8507 155.155 16.5944 151.187 16.9635 147.169C17.3308 143.179 17.3963 139.151 17.2672 135.149C17.2053 133.252 17.0653 131.367 16.7653 129.492C16.498 127.819 16.1798 126.109 15.4743 124.555C14.8615 123.202 13.9305 122.068 12.6249 121.331C11.2211 120.54 9.54642 120.449 8.06264 121.081C6.64796 121.684 5.38057 122.847 4.76051 124.26C4.37502 125.138 4.07499 126.062 3.86588 126.998C3.65131 127.956 3.56585 128.933 3.46766 129.907C3.06762 133.863 3.07489 137.811 3.47311 141.765C3.67131 143.735 3.93861 145.697 4.20046 147.66C4.46048 149.613 4.68596 151.569 4.92962 153.523C5.42057 157.45 6.08973 161.331 6.88617 165.205C7.06618 166.084 7.23166 166.995 7.1771 167.897C7.11892 168.882 6.95527 169.858 6.74434 170.82C6.53704 171.762 6.27338 172.691 5.98972 173.613C5.7006 174.553 5.3733 175.511 5.28056 176.494C5.24237 176.891 5.2151 177.248 5.0569 177.617C4.87325 178.045 4.67141 178.443 4.56049 178.901C4.54231 178.974 4.54594 179.046 4.56049 179.115C3.98771 180.298 3.42402 181.486 2.87306 182.676C1.90751 184.755 0.974693 186.847 0.0655154 188.95C-0.316339 189.832 1.04379 190.453 1.42565 189.571C5.35875 180.506 9.76644 171.626 15.0651 163.302C15.7743 162.863 16.5435 162.53 17.2526 162.09C18.0145 161.617 18.76 161.112 19.5474 160.681C21.1057 159.83 22.8713 159.33 24.5624 158.814C25.4043 158.556 26.2371 158.326 27.1045 158.172C28.0136 158.011 28.9301 157.895 29.8429 157.758C31.734 157.471 33.6033 157.042 35.4853 156.704C39.282 156.021 43.1351 155.566 46.9609 155.072C50.1994 154.653 53.4506 154.238 56.5982 153.344C58.1529 152.902 59.6749 152.337 61.1077 151.589C62.4133 150.908 63.7752 150.116 64.699 148.941C65.1699 148.341 65.5063 147.633 65.4918 146.86C65.4772 146.036 65.0117 145.347 64.4317 144.799C63.3316 143.754 61.8078 143.245 60.3513 142.928C56.8928 142.172 53.307 142.392 49.8194 142.819C46.1063 143.274 42.475 144.094 38.9074 145.213C35.4416 146.302 32.1177 147.707 28.9028 149.392C26.4826 150.66 24.0933 151.985 21.8967 153.59C22.3495 153.007 22.8059 152.425 23.2714 151.851C27.7354 146.34 32.3977 140.908 37.4418 135.915C40.0675 133.316 42.9769 131.008 45.6353 128.435C48.1356 126.017 50.4831 123.43 52.7997 120.837C53.036 120.802 53.2524 120.647 53.3124 120.348C53.2888 120.469 53.4179 120.161 53.3543 120.255C53.4306 120.145 53.4615 120.121 53.5034 120.087C53.6961 119.924 53.8525 119.839 54.0489 119.75C54.138 119.708 54.2307 119.674 54.3234 119.638C54.4398 119.719 54.5926 119.73 54.7326 119.601C54.7962 119.544 54.8653 119.489 54.9308 119.431C55.1581 119.364 55.3872 119.303 55.6145 119.243C56.8782 118.915 58.1056 118.477 59.3748 118.169C62.8442 117.323 66.4464 117.24 69.994 117.017C77.1074 116.57 84.2245 115.798 91.1597 114.115C92.5689 113.773 93.9799 113.387 95.291 112.755C95.9492 112.436 96.5947 112.071 97.1639 111.609C97.493 111.343 97.7858 111.031 98.0876 110.734C98.4204 110.408 98.795 110.098 99.0859 109.732C99.3514 109.397 99.5405 109.024 99.635 108.606C99.7332 108.169 99.6278 107.782 99.5787 107.358C99.5023 106.682 99.2714 106.101 98.7349 105.655C98.4876 105.451 98.2058 105.322 97.924 105.177C97.5076 104.964 97.113 104.723 96.6802 104.54C95.891 104.205 95.0601 104 94.2272 103.801C92.4907 103.382 90.6942 103.294 88.914 103.35C87.1284 103.404 85.3482 103.587 83.5862 103.88C80.1059 104.462 76.6547 105.384 73.2871 106.429C70.0158 107.443 66.8046 108.698 63.7807 110.312C62.2551 111.127 60.8041 112.051 59.4076 113.05C65.57 105.348 71.0341 97.132 75.4382 88.2844C75.7091 87.8461 75.9546 87.3915 76.2146 86.9477C76.5547 86.3663 76.9074 85.7994 77.3365 85.2778C77.8002 84.7164 78.3566 84.2943 78.964 83.8959C80.2405 83.0573 81.4715 82.1427 82.7807 81.3548C84.0645 80.5814 85.4882 80.0671 86.872 79.5038C89.8359 78.2993 92.8362 77.1492 95.7274 75.78C97.1712 75.0954 98.6349 74.4922 100.146 73.9652C101.508 73.4907 102.877 73.0524 104.217 72.5108C106.77 71.4766 109.278 70.0096 110.071 67.2004C110.378 66.1155 110.412 64.8133 109.64 63.9041L109.636 63.9059ZM90.6015 47.2286C92.0252 45.0841 93.5181 42.9868 95.2673 41.0905C96.9384 39.2775 98.8077 37.6402 100.879 36.2963C102.943 34.956 105.208 33.7896 107.572 33.0851C108.665 32.759 109.891 32.5453 110.982 32.5779C111.418 32.5906 111.918 32.6141 112.253 32.7898C112.285 32.8061 112.333 32.8369 112.393 32.8931C112.393 32.8967 112.404 32.9094 112.418 32.9293C112.422 32.9402 112.427 32.9528 112.434 32.9746C112.444 32.9981 112.449 33.0072 112.451 33.0126C112.451 33.0235 112.451 33.0434 112.453 33.0851C112.453 33.0941 112.454 33.1321 112.456 33.1593C112.451 33.1992 112.445 33.2879 112.445 33.2843C112.409 33.5451 112.398 33.5541 112.32 33.7606C112.234 33.9798 112.133 34.1917 112.02 34.3982C111.838 34.7332 111.663 34.9922 111.4 35.3345C110.807 36.1007 110.092 36.7889 109.365 37.4265C105.981 40.3877 101.837 42.2532 97.9512 44.4448C96.9621 45.0026 95.9838 45.584 95.0364 46.2125C94.0745 46.8482 93.1835 47.5745 92.238 48.2319C91.7561 48.567 91.2652 48.8858 90.776 49.2118C91.567 48.366 92.3743 47.5365 93.2181 46.7432C95.0673 45.0044 97.0984 43.5374 99.2968 42.2677C100.522 41.5596 101.77 40.8876 102.999 40.1849C103.314 40.0038 103.019 39.4514 102.694 39.6216C100.444 40.7989 98.1549 41.9327 96.0692 43.3852C93.9745 44.8432 92.1289 46.6272 90.3832 48.4765C89.8268 49.0669 89.2777 49.6682 88.734 50.2695C89.3177 49.2335 89.945 48.2229 90.6033 47.2304L90.6015 47.2286ZM89.0431 21.0498C89.2631 17.4962 90.2251 14.2723 92.0507 11.2133C93.6345 8.55806 95.5019 5.96626 97.8476 3.92506C98.8641 3.04121 99.9696 2.26784 101.17 1.65566C101.99 2.50148 101.395 4.60788 101.173 5.49717C100.733 7.26126 100.037 8.96377 99.3041 10.6246C98.2876 12.9266 97.373 15.2486 96.5475 17.6266C95.4255 20.8632 94.0927 23.9259 92.658 27.0339C92.2925 27.8272 91.9107 28.6259 91.6015 29.4428C91.2924 30.265 91.1506 31.1272 90.9106 31.9694C90.716 32.6522 90.4796 33.4002 90.1723 34.1102C90.3287 31.8172 90.5069 29.5225 90.8742 27.2531C91.3161 24.52 92.0434 21.8159 92.8307 19.1643C93.2835 17.6429 93.7981 16.1397 94.3618 14.6545C94.5055 14.2778 93.9509 14.0151 93.7836 14.3901C92.6544 16.9474 91.8288 19.6262 91.1397 22.3321C90.4342 25.1032 89.9123 27.8743 89.645 30.7233C89.6086 31.1127 89.5759 31.5021 89.5432 31.8915C89.2104 28.2872 88.8122 24.6848 89.0395 21.0516L89.0431 21.0498ZM84.3863 50.2424C83.2026 48.8659 81.8133 47.6832 80.5496 46.3845C78.0966 43.867 75.8764 41.0561 74.2562 37.9336C74.0108 37.4609 73.4835 36.6911 73.7126 36.1695C73.8708 35.8091 74.4654 35.6243 74.9218 35.5428C75.2163 35.4903 75.5164 35.4631 75.8164 35.4541C75.8582 35.4541 76.1146 35.4541 76.111 35.4541C76.3092 35.4631 76.5074 35.4831 76.7038 35.5157C77.4638 35.6406 78.193 35.9558 78.8312 36.3832C81.4642 38.1419 83.1626 41.0253 84.2172 43.9376C84.8318 45.6329 85.2955 47.4169 85.481 49.2118C85.4846 49.2444 85.4864 49.2788 85.4901 49.3114C84.9427 48.1269 84.3209 46.9786 83.5553 45.9209C82.2352 44.097 80.6169 42.5104 79.004 40.9492C78.6385 40.596 78.1384 41.2064 78.5003 41.5559C80.0823 43.0846 81.6606 44.6386 82.9498 46.428C84.0608 47.973 84.7536 49.7153 85.5664 51.4069C85.5628 51.5681 85.5592 51.7293 85.5519 51.8905C85.23 51.2947 84.8173 50.7404 84.3881 50.2424H84.3863ZM8.10447 171.769C8.15174 171.807 8.20811 171.83 8.27176 171.836C8.14083 172.082 8.00628 172.325 7.87535 172.571C7.95718 172.305 8.03355 172.037 8.10628 171.767L8.10447 171.769ZM13.9541 156.12C13.3759 158.381 12.6449 160.612 11.8376 162.811C11.9667 161.96 12.0812 161.106 12.1612 160.248C12.5885 155.582 12.2521 150.89 11.7048 146.249C11.3939 143.616 11.0138 140.992 10.6665 138.364C10.5992 137.862 9.81372 137.943 9.881 138.449C10.4792 142.964 11.1702 147.474 11.4484 152.023C11.5866 154.302 11.623 156.589 11.4793 158.868C11.3375 161.123 11.0102 163.376 10.5774 165.593C10.4829 166.08 10.3556 166.547 10.2101 167.007C10.2065 167.015 10.2047 167.024 10.201 167.031C9.83736 167.926 9.46278 168.815 9.0791 169.701C9.04092 169.787 9.02819 169.871 9.02455 169.95C8.82454 170.376 8.58997 170.785 8.27903 171.106C8.48996 170.224 8.64452 169.331 8.71361 168.424C8.85726 166.538 8.36085 164.774 7.999 162.943C7.62442 161.049 7.30075 159.145 7.008 157.236C6.42431 153.422 6.01154 149.582 5.49149 145.759C4.97689 141.964 4.5514 138.155 4.64959 134.319C4.69869 132.428 4.84234 130.539 5.05145 128.661C5.14964 127.77 5.32602 126.877 5.60786 126.024C5.86062 125.258 6.13882 124.512 6.65342 123.881C7.49168 122.856 8.73362 122.115 10.0865 122.103C11.3793 122.09 12.6085 122.894 13.3559 123.89C14.1505 124.948 14.5924 126.299 14.8669 127.591C15.2561 129.413 15.5143 131.26 15.6434 133.118C15.907 136.925 15.8779 140.783 15.6561 144.592C15.4306 148.475 14.9197 152.349 13.9559 156.122L13.9541 156.12ZM18.08 158.781C18.1763 158.643 18.2691 158.502 18.3654 158.364C18.4382 158.35 18.5091 158.321 18.5782 158.277C18.4109 158.442 18.2436 158.611 18.0818 158.779L18.08 158.781ZM22.6513 154.688C24.0987 153.617 25.6571 152.724 27.2263 151.848C30.3048 150.131 33.4887 148.588 36.8145 147.407C40.173 146.215 43.6497 145.262 47.17 144.688C50.6213 144.127 54.2307 143.696 57.7256 144.029C59.1293 144.163 60.5859 144.377 61.8951 144.918C62.506 145.172 63.1152 145.501 63.5734 145.989C63.7662 146.193 63.948 146.436 64.008 146.715C64.048 146.903 64.008 147.153 63.948 147.318C63.5043 148.502 62.146 149.285 61.095 149.888C59.7676 150.649 58.3311 151.221 56.8728 151.679C53.8961 152.612 50.7849 153.027 47.6992 153.42C44.0661 153.882 40.4239 154.338 36.8054 154.903C34.9561 155.193 33.1232 155.573 31.2867 155.925C29.5302 156.262 27.7391 156.412 25.9935 156.803C24.2278 157.198 22.4658 157.781 20.7748 158.422C19.9492 158.734 19.1819 159.123 18.4345 159.551C19.0601 158.884 19.7128 158.247 20.4293 157.676C21.7094 156.658 23.1568 155.954 24.6624 155.329C26.2517 154.668 27.8754 154.092 29.4592 153.416C30.9394 152.786 32.4595 152.25 34.0524 151.985C36.0562 151.654 38.1019 151.77 40.1057 151.408C40.5312 151.332 40.473 150.683 40.033 150.734C38.1783 150.953 36.2981 150.879 34.447 151.129C32.8268 151.346 31.2576 151.824 29.7465 152.44C28.0809 153.117 26.4026 153.766 24.7351 154.443C23.2059 155.066 21.6912 155.747 20.3584 156.732C19.911 157.062 19.4892 157.421 19.0819 157.796C20.1911 156.669 21.3803 155.626 22.6531 154.684L22.6513 154.688ZM47.4155 124.318C47.2737 124.499 47.13 124.68 46.9864 124.859C46.97 124.876 46.9536 124.894 46.9373 124.91C47.981 122.67 48.9993 120.415 49.7739 118.067C50.7195 115.202 51.2377 112.241 51.1468 109.216C51.1231 108.401 51.0522 107.59 50.9122 106.786C50.7704 105.98 50.6031 105.161 50.7704 104.346C50.8449 103.98 50.2576 103.79 50.1303 104.152C49.6594 105.482 50.1903 106.896 50.3031 108.247C50.4285 109.75 50.3849 111.274 50.2012 112.77C49.8266 115.822 48.7993 118.736 47.5882 121.547C46.9082 123.126 46.1699 124.682 45.4444 126.241C45.4062 126.323 45.3989 126.399 45.4117 126.469C44.8153 127.069 44.2134 127.661 43.6006 128.243C43.5569 128.284 43.5133 128.324 43.4697 128.364C43.646 128.076 43.8261 127.788 44.0006 127.498C45.459 125.098 46.7009 122.557 47.1882 119.772C47.4373 118.348 47.7046 116.923 47.8046 115.481C47.9028 114.072 47.8446 112.659 47.6246 111.263C47.2028 108.579 46.1881 106.029 45.739 103.35C45.5044 101.959 45.4571 100.562 45.5553 99.1551C45.6044 98.4469 45.6808 97.7406 45.7899 97.0396C45.8772 96.4745 45.8935 95.8605 46.1136 95.3263C46.3027 94.8716 46.6063 94.4986 47.0046 94.2088C47.4682 93.8737 48.0992 93.7415 48.6611 93.6853C49.7339 93.5803 50.954 93.8012 51.7068 94.6289C51.8887 94.8282 52.0087 95.0727 52.1941 95.2665C52.3851 95.4675 52.5633 95.6758 52.7233 95.904C53.0269 96.3369 53.2452 96.8168 53.3943 97.324C53.5615 97.8981 53.607 98.5121 53.7106 99.0989C53.8343 99.7944 53.9361 100.494 54.0161 101.194C54.3343 103.951 54.3089 106.722 53.9125 109.47C53.5252 112.161 52.8178 114.813 51.7468 117.316C50.6558 119.868 49.1138 122.126 47.4137 124.312L47.4155 124.318ZM62.1769 112.674C64.9899 110.915 68.0611 109.571 71.1851 108.463C74.3708 107.333 77.6638 106.422 80.9678 105.701C84.3227 104.969 87.8412 104.453 91.2833 104.717C92.9417 104.844 94.6909 105.165 96.2165 105.847C96.5875 106.014 96.9311 106.217 97.2857 106.411C97.5112 106.534 97.773 106.648 97.9258 106.816C98.0694 106.978 98.1276 107.13 98.1494 107.34C98.1822 107.657 98.2967 108.008 98.2185 108.325C98.1349 108.666 97.8749 108.91 97.6294 109.146C97.3057 109.457 96.9821 109.77 96.6566 110.082C96.1802 110.54 95.631 110.919 95.0419 111.219C93.7781 111.864 92.398 112.263 91.0251 112.603C84.3245 114.268 77.3984 114.994 70.5195 115.432C67.001 115.657 63.4516 115.722 59.9913 116.463C59.5348 116.561 59.0821 116.669 58.6311 116.791C62.7679 114.438 67.5974 113.284 72.2324 112.391C73.9762 112.056 75.7273 111.752 77.4638 111.381C77.8766 111.292 77.8275 110.651 77.3911 110.714C74.1835 111.187 70.9832 111.768 67.832 112.538C64.6826 113.306 61.5659 114.311 58.7039 115.852C57.6874 116.401 56.7091 117.017 55.7872 117.707C55.6817 117.738 55.5745 117.767 55.4654 117.798C57.5892 115.948 59.7821 114.168 62.1751 112.672L62.1769 112.674ZM73.698 86.7865C73.5362 87.4078 73.3725 88.0272 73.2725 88.6611C73.2507 88.7951 73.2671 88.9147 73.3071 89.0215C73.0798 89.4635 72.8507 89.9036 72.6179 90.3437C72.647 89.6754 72.6343 89.0052 72.5525 88.3405C72.7325 86.1309 72.6216 83.8995 72.4343 81.6917C72.2997 80.1033 72.167 78.5094 71.8451 76.9446C71.5305 75.4178 71.0396 73.9308 70.4668 72.48C69.8213 70.8391 69.0721 69.2416 68.3393 67.6387C68.1411 67.2041 67.441 67.4685 67.6411 67.9068C68.9103 70.7014 70.2668 73.5106 70.9687 76.5135C71.3214 78.0259 71.476 79.5744 71.6069 81.1194C71.6887 82.0883 71.7742 83.0555 71.8287 84.0263C71.6196 82.7748 71.2032 81.5993 70.7359 80.4239C68.8212 75.6116 66.2228 71.1108 63.9753 66.4524C63.517 65.5015 63.0315 64.5471 62.6842 63.5491C62.4078 62.7522 62.1769 61.7959 62.5824 61.0768C62.9806 60.3669 63.7552 60.3433 64.4808 60.4665C65.2554 60.5987 66.0336 60.9482 66.7228 61.4499C68.343 62.6272 69.4649 64.3822 70.3995 66.1173C71.4542 68.0789 72.407 70.1074 73.1398 72.2102C73.9253 74.4633 74.4217 76.7979 74.4817 79.1868C74.5145 80.4655 74.4454 81.7424 74.3163 83.0138C74.1872 84.2871 74.0235 85.5441 73.6998 86.7847L73.698 86.7865ZM104.214 70.8391C101.546 71.9819 98.6786 72.6376 96.0583 73.8909C93.2999 75.2113 90.4687 76.3523 87.6339 77.5006C86.2701 78.053 84.8845 78.571 83.5499 79.1904C82.4552 79.6976 81.4424 80.3297 80.4459 80.998C81.3315 80.1721 82.2788 79.4114 83.2571 78.696C85.461 77.084 87.8085 75.6786 90.1796 74.3292C91.5324 73.5595 92.8908 72.7988 94.2345 72.0145C94.5546 71.828 94.2563 71.2683 93.9236 71.4404C91.4052 72.7481 88.9122 74.1065 86.4956 75.5971C84.4263 76.8739 82.3988 78.2468 80.5659 79.8479C81.2624 78.9224 82.0024 78.0313 82.8043 77.1891C84.7791 75.1153 86.8993 73.1393 89.185 71.4078C91.5215 69.6365 94.0909 68.1531 96.7238 66.8672C99.2805 65.6193 101.944 64.5289 104.796 64.2174C105.128 64.1812 105.461 64.154 105.796 64.1395C106.037 64.1287 106.308 64.1251 106.47 64.1359C106.694 64.1522 106.914 64.174 107.136 64.212C107.243 64.2301 107.349 64.2555 107.454 64.279C107.463 64.2808 107.519 64.2971 107.55 64.3044C107.585 64.317 107.665 64.3424 107.676 64.3478C107.783 64.3877 107.889 64.433 107.99 64.4837C108.098 64.5362 108.149 64.5724 108.143 64.567C108.223 64.6231 108.296 64.6829 108.369 64.7463C108.376 64.7517 108.403 64.7807 108.425 64.8006C108.447 64.8278 108.496 64.8876 108.501 64.8966C108.618 65.0542 108.658 65.1429 108.703 65.3096C108.74 65.4418 108.765 65.737 108.756 65.8946C108.61 68.4556 106.354 69.919 104.214 70.8355V70.8391Z" fill="#E5C267"/>
</g>
<defs>
<clipPath id="clip0_5_68">
<rect width="114" height="190" fill="white"/>
</clipPath>
</defs>
</svg>
