<svg width="401" height="401" viewBox="0 0 401 401" fill="none" xmlns="http://www.w3.org/2000/svg">
<path d="M389.932 333.632C389.932 333.712 305.081 333.873 200.5 333.873C95.839 333.873 11.0676 333.792 11.0676 333.632C11.0676 333.552 95.839 333.391 200.5 333.391C305.161 333.472 389.932 333.552 389.932 333.632Z" fill="#263238"/>
<g opacity="0.3">
<path d="M322.404 337.161C317.512 331.948 310.133 330.023 303.076 328.74C277.572 324.249 251.026 325.612 226.164 332.83L220.55 333.632C230.414 347.106 238.755 358.253 252.63 367.557C266.504 376.78 283.667 382.073 300.028 378.945C309.492 377.1 318.795 372.208 323.928 364.028C329.06 355.847 329.06 344.138 322.404 337.161Z" fill="black"/>
</g>
<path d="M270.274 245.171L246.054 257.041L236.911 235.307C236.911 235.307 234.986 235.788 230.254 226.725C225.522 217.663 217.342 202.345 217.342 202.345C226.004 192.32 239.397 187.508 252.389 189.753L254.314 190.074L270.274 245.171Z" fill="#F9F6CC"/>
<path d="M256.961 202.826C257.121 202.665 262.494 197.693 265.462 204.029C268.429 210.365 261.211 212.129 261.131 211.969C260.971 211.808 256.961 202.826 256.961 202.826Z" fill="#F9F6CC"/>
<path d="M226.003 216.781C225.843 216.781 219.267 218.224 222.635 224.319C226.003 230.415 231.698 225.683 231.617 225.522C231.457 225.362 226.003 216.781 226.003 216.781Z" fill="#F9F6CC"/>
<path d="M258.725 201.061C260.409 206.756 261.933 209.402 262.815 213.332C264.179 219.588 263.457 225.202 259.688 230.575C255.918 235.948 248.941 239.397 242.605 237.873C238.194 236.831 234.585 234.986 232.099 231.297C229.693 227.608 225.683 220.871 223.678 216.941C220.069 209.883 216.139 203.307 216.139 203.307L235.387 189.031L250.866 189.914L258.725 201.061Z" fill="#212019"/>
<path d="M250.625 239.156C250.705 239.317 252.55 238.916 254.474 237.633C256.399 236.349 257.602 234.906 257.442 234.745C257.281 234.585 255.998 235.868 254.073 237.071C252.229 238.274 250.545 238.996 250.625 239.156Z" fill="#263238"/>
<path d="M262.174 210.445C260.088 204.751 257.442 198.415 255.437 192.4C254.715 190.154 253.913 186.706 252.71 184.62C251.427 182.615 250.144 180.45 248.139 179.006C245.733 177.162 242.364 176.6 239.317 177.483C236.349 178.365 233.703 180.61 232.5 183.417C229.853 181.974 226.244 182.375 223.838 184.3C221.432 186.224 220.47 189.673 221.432 192.48C219.267 191.838 216.62 192.881 215.417 194.806C214.134 196.731 214.374 199.457 215.898 201.061C214.535 202.104 213.653 203.788 213.733 205.392C213.813 207.076 214.775 208.6 216.219 209.482C217.903 210.445 220.069 210.365 221.833 211.167C223.838 212.129 225.201 214.375 224.961 216.62" fill="#212019"/>
<path d="M223.197 205.873C223.197 205.873 223.357 206.114 223.758 206.355C224.159 206.595 224.801 206.916 225.683 207.076C226.565 207.237 227.688 207.157 228.811 206.515C229.933 205.954 230.976 204.831 231.457 203.307L230.976 203.387C231.858 204.59 233.623 205.312 235.387 205.071C237.151 204.911 238.916 203.788 239.878 202.104C240.76 200.58 241.001 198.896 240.841 197.372L240.359 197.693C242.364 198.816 244.69 198.655 246.374 197.853C248.139 197.051 249.181 195.528 249.582 194.244C250.064 192.961 249.983 191.838 249.823 191.117C249.663 190.395 249.502 190.074 249.422 190.074C249.342 190.074 249.502 190.475 249.582 191.197C249.663 191.919 249.663 192.961 249.181 194.164C248.7 195.367 247.738 196.731 246.134 197.372C244.53 198.094 242.445 198.174 240.68 197.212L240.119 196.891L240.199 197.533C240.359 198.896 240.119 200.5 239.317 201.863C238.435 203.387 236.991 204.43 235.387 204.51C233.783 204.67 232.259 204.109 231.537 203.066L231.217 202.585L231.056 203.147C230.735 204.51 229.773 205.553 228.811 206.114C227.768 206.675 226.725 206.836 225.923 206.756C223.918 206.515 223.197 205.793 223.197 205.873Z" fill="#212019"/>
<path d="M221.913 203.387C221.994 203.387 221.352 202.345 221.673 200.66C221.833 199.858 222.234 198.816 223.196 198.094C224.079 197.372 225.362 196.891 226.725 197.051L227.447 197.132L227.126 196.57C226.806 196.009 226.565 195.367 226.404 194.645C226.164 193.122 226.645 191.518 227.527 190.395C228.41 189.272 229.613 188.711 230.655 188.47C232.821 187.989 234.104 188.711 234.184 188.55C234.184 188.55 233.943 188.31 233.302 188.149C232.66 187.989 231.778 187.828 230.575 187.989C229.452 188.229 228.089 188.791 227.046 189.994C226.004 191.197 225.522 192.961 225.763 194.645C225.843 195.447 226.164 196.169 226.565 196.811L226.886 196.33C225.362 196.169 223.838 196.731 222.876 197.533C221.913 198.415 221.432 199.538 221.352 200.42C221.272 201.382 221.432 202.104 221.592 202.505C221.753 203.147 221.913 203.387 221.913 203.387Z" fill="#212019"/>
<path d="M235.467 196.811C235.547 196.731 235.307 196.49 235.066 195.929C234.825 195.447 234.665 194.645 234.825 193.763C234.906 192.881 235.066 191.999 235.226 191.518C235.387 191.036 235.788 191.117 235.868 191.036C235.868 191.036 235.868 190.876 235.627 190.876C235.387 190.876 235.066 191.036 234.906 191.357C234.745 191.678 234.665 191.999 234.505 192.4C234.424 192.801 234.264 193.282 234.264 193.763C234.184 194.726 234.424 195.688 234.745 196.169C235.066 196.65 235.467 196.811 235.467 196.811Z" fill="#212019"/>
<path d="M244.048 182.615C244.129 182.535 243.808 182.134 243.086 181.653C242.685 181.412 242.204 181.252 241.642 181.172C241.081 181.092 240.359 181.252 239.718 181.653C238.515 182.455 238.114 183.738 237.953 184.46C237.793 185.262 237.793 185.743 237.873 185.823C237.953 185.823 238.114 185.342 238.434 184.62C238.755 183.899 239.156 182.856 240.119 182.214C241.081 181.573 242.204 181.813 242.845 182.054C243.567 182.455 243.968 182.696 244.048 182.615Z" fill="#212019"/>
<path d="M254.073 210.766C254.234 210.766 254.635 208.52 254.314 205.633C253.993 202.826 253.031 200.741 252.87 200.821C252.71 200.901 253.351 203.066 253.672 205.793C253.993 208.44 253.833 210.766 254.073 210.766Z" fill="#212019"/>
<path d="M251.988 213.653C252.149 213.653 252.309 212.049 252.149 210.044C251.988 208.039 251.507 206.515 251.347 206.515C251.186 206.515 251.347 208.119 251.507 210.124C251.668 212.049 251.828 213.653 251.988 213.653Z" fill="#212019"/>
<path d="M234.424 223.036C234.264 223.036 235.307 225.843 237.873 228.169C240.52 230.575 243.327 231.297 243.407 231.136C243.487 230.976 240.84 229.933 238.354 227.688C235.868 225.442 234.665 222.956 234.424 223.036Z" fill="#212019"/>
<path d="M229.292 219.908C229.131 219.908 229.452 222.555 231.377 225.041C233.302 227.608 235.788 228.57 235.788 228.41C235.868 228.249 233.703 227.046 231.858 224.64C230.094 222.314 229.532 219.828 229.292 219.908Z" fill="#212019"/>
<path d="M216.781 201.783C216.781 201.863 216.46 202.024 216.059 202.425C215.658 202.826 215.177 203.467 215.096 204.35C215.016 205.232 215.257 205.954 215.578 206.435C215.898 206.916 216.139 207.157 216.139 207.237C216.139 207.317 215.738 207.076 215.337 206.595C214.936 206.114 214.535 205.232 214.695 204.269C214.856 203.307 215.417 202.505 215.898 202.184C216.38 201.783 216.781 201.703 216.781 201.783Z" fill="white"/>
<path d="M220.149 193.523C220.149 193.603 219.748 193.763 219.026 194.084C218.384 194.405 217.342 194.886 216.62 195.768C215.898 196.65 215.738 197.693 215.898 198.415C216.059 199.137 216.46 199.457 216.379 199.538C216.379 199.538 215.898 199.297 215.577 198.495C215.337 197.693 215.417 196.49 216.299 195.528C217.101 194.565 218.144 194.164 218.866 193.843C219.668 193.603 220.149 193.442 220.149 193.523Z" fill="white"/>
<path d="M227.688 183.899C227.688 183.979 227.126 184.059 226.244 184.38C225.362 184.701 224.239 185.422 223.437 186.545C222.635 187.668 222.314 188.951 222.234 189.914C222.154 190.876 222.234 191.437 222.154 191.437C222.074 191.437 221.913 190.876 221.913 189.914C221.913 188.951 222.234 187.588 223.116 186.385C223.999 185.182 225.202 184.46 226.164 184.139C227.046 183.818 227.688 183.818 227.688 183.899Z" fill="white"/>
<path d="M238.755 179.488C238.836 179.568 237.552 180.29 236.269 181.332C234.986 182.455 234.104 183.498 234.024 183.417C233.943 183.337 234.665 182.134 236.029 181.011C237.312 179.889 238.675 179.327 238.755 179.488Z" fill="white"/>
<path d="M228.249 198.335C228.249 198.335 227.768 197.773 227.367 196.65C227.046 195.528 226.886 193.843 227.608 192.159C228.329 190.475 229.693 189.352 230.735 188.871C231.778 188.39 232.58 188.31 232.58 188.39C232.58 188.47 231.858 188.63 230.896 189.192C229.933 189.753 228.73 190.796 228.009 192.4C227.367 194.004 227.367 195.608 227.688 196.65C227.928 197.693 228.329 198.335 228.249 198.335Z" fill="white"/>
<path d="M239.236 187.508C239.156 187.508 238.916 186.385 239.718 185.182C240.439 183.979 241.562 183.658 241.642 183.738C241.723 183.818 240.76 184.3 240.119 185.422C239.397 186.465 239.397 187.508 239.236 187.508Z" fill="white"/>
<path d="M210.846 314.063C212.049 315.747 220.71 339.807 234.104 349.993C247.497 360.098 259.928 366.594 279.256 365.953C298.504 365.311 308.61 360.098 315.828 357.291C335.156 349.672 328.339 334.675 328.339 334.675L294.575 326.173L248.861 301.873C248.861 301.873 232.339 286.234 226.324 284.068C220.229 281.903 212.37 291.447 210.685 299.868C208.921 308.449 210.846 314.063 210.846 314.063Z" fill="#212019"/>
<path d="M240.279 341.732C240.279 341.732 240.199 341.411 240.199 340.93C240.119 340.449 240.119 339.647 240.119 338.765C240.119 336.92 240.359 334.354 241.001 331.547C241.642 328.82 242.605 326.414 243.407 324.73C243.808 323.928 244.209 323.206 244.449 322.805C244.69 322.324 244.85 322.163 244.931 322.163C245.011 322.163 244.449 323.206 243.728 324.89C243.006 326.574 242.124 328.98 241.482 331.707C240.84 334.434 240.6 337 240.52 338.845C240.279 340.609 240.359 341.732 240.279 341.732Z" fill="#212019"/>
<path d="M235.708 331.306C235.627 331.306 236.028 330.344 236.75 328.98C237.472 327.537 238.515 325.692 239.878 323.687C241.241 321.682 242.605 319.998 243.728 318.795C244.77 317.592 245.492 316.95 245.572 316.95C245.652 317.031 245.011 317.752 243.968 318.955C243.006 320.158 241.642 321.923 240.279 323.848C238.916 325.853 237.793 327.697 237.071 329.061C236.189 330.504 235.788 331.306 235.708 331.306Z" fill="#212019"/>
<path d="M279.738 138.265L278.535 130.004C278.535 130.004 274.845 126.556 274.043 125.192C273.161 123.749 268.83 124.15 268.83 124.15L267.547 110.997C267.547 110.997 266.986 108.671 264.82 110.115C262.735 111.558 263.778 127.037 263.778 127.037L263.297 130.646C263.297 130.646 259.126 125.433 256.72 126.155C254.314 126.876 257.522 129.603 258.084 131.207C258.565 132.731 267.948 141.473 267.948 141.473L276.048 157.753H277.813L283.507 161.844L289.121 153.503L279.738 138.265Z" fill="#F9F6CC"/>
<path d="M232.099 250.304C232.099 250.304 223.678 255.758 220.951 264.419C219.668 268.51 220.55 286.234 221.833 302.354C222.154 306.444 222.715 322.404 225.923 324.89C226.003 324.97 227.928 327.537 232.66 327.537C241.562 327.537 242.845 321.682 245.492 313.261L244.85 303.156C244.85 303.156 248.459 269.231 247.176 263.297C245.813 257.442 232.099 250.304 232.099 250.304Z" fill="#D57E43"/>
<path d="M275.647 221.111L266.424 228.169C266.424 228.169 265.141 238.515 253.031 245.011C247.256 248.139 241.482 246.214 241.482 246.214L232.099 250.304L227.928 282.545L247.337 311.898L249.743 323.126L250.063 327.136C250.063 327.136 248.7 333.873 251.427 341.411C254.154 348.95 256.88 358.494 291.687 358.334C322.083 358.253 330.183 338.444 330.504 336.198C330.825 333.873 322.243 312.299 320.639 306.925C319.035 301.472 301.712 242.846 301.712 242.846L294.815 227.287L275.647 221.111Z" fill="#D57E43"/>
<path d="M279.577 178.525L266.424 228.089L283.747 234.264L292.569 238.515L295.457 223.517C295.457 223.517 302.434 185.021 302.434 178.686C302.514 170.666 283.988 141.633 283.988 141.633C283.988 141.633 273.562 140.029 270.354 150.455L279.577 178.525Z" fill="#D57E43"/>
<path d="M277.251 345.903C277.251 345.903 276.77 345.822 275.888 345.662C275.487 345.582 274.925 345.502 274.284 345.261C273.642 345.101 273.001 344.94 272.199 344.619C271.477 344.379 270.595 344.058 269.793 343.657C268.91 343.336 268.028 342.855 267.066 342.374C265.221 341.331 263.296 340.128 261.372 338.604C257.602 335.557 254.635 332.269 252.71 329.782C251.748 328.499 250.946 327.537 250.464 326.735C249.983 326.013 249.662 325.612 249.743 325.612C249.743 325.612 250.063 326.013 250.625 326.655C251.186 327.376 251.988 328.339 252.951 329.622C254.956 332.028 257.923 335.316 261.692 338.284C263.617 339.807 265.462 341.01 267.306 342.053C268.269 342.534 269.071 343.015 269.953 343.336C270.755 343.737 271.557 344.058 272.359 344.299C273.081 344.619 273.803 344.78 274.364 344.94C274.925 345.181 275.487 345.261 275.888 345.341C276.77 345.742 277.251 345.903 277.251 345.903Z" fill="#D57E43"/>
<path d="M312.459 284.87C312.459 284.87 312.459 285.031 312.459 285.352C312.459 285.753 312.379 286.154 312.379 286.795C312.299 287.998 312.138 289.843 311.898 292.008C311.416 296.419 310.454 302.434 309.01 309.011C307.487 315.587 305.722 321.442 304.359 325.612C303.637 327.697 302.995 329.381 302.594 330.504C302.354 331.066 302.193 331.467 302.033 331.787C301.873 332.108 301.873 332.269 301.792 332.269C301.792 332.269 301.792 332.108 301.953 331.787C302.033 331.467 302.193 330.985 302.434 330.424C302.835 329.221 303.396 327.537 304.118 325.452C305.482 321.281 307.166 315.427 308.69 308.85C310.133 302.274 311.176 296.259 311.737 291.928C312.058 289.763 312.218 287.998 312.379 286.715C312.459 286.154 312.539 285.672 312.539 285.271C312.459 285.111 312.459 284.87 312.459 284.87Z" fill="#D57E43"/>
<path d="M305.883 270.114C305.883 270.114 305.802 270.595 305.562 271.477C305.321 272.359 304.92 273.642 304.439 275.246C303.396 278.374 301.792 282.705 298.825 286.795C297.381 288.88 295.858 290.725 294.414 292.329C292.97 293.933 291.687 295.457 290.645 296.66C289.602 297.863 288.72 298.825 288.078 299.547C287.437 300.269 287.116 300.59 287.116 300.59C287.116 300.59 287.437 300.189 287.998 299.467C288.559 298.745 289.442 297.702 290.484 296.419C291.527 295.136 292.81 293.692 294.254 292.008C295.617 290.324 297.141 288.479 298.584 286.474C301.472 282.384 303.156 278.134 304.198 275.086C304.76 273.562 305.161 272.279 305.401 271.397C305.642 270.595 305.802 270.114 305.883 270.114Z" fill="#D57E43"/>
<path d="M235.066 292.409C235.066 292.489 232.019 292.65 228.329 292.65C224.64 292.65 221.593 292.57 221.593 292.409C221.593 292.249 224.64 292.169 228.329 292.169C232.099 292.169 235.066 292.329 235.066 292.409Z" fill="#D57E43"/>
<path d="M305.642 254.475C305.642 254.475 305.562 254.475 305.482 254.555C305.321 254.635 305.161 254.715 304.92 254.795C304.359 255.036 303.637 255.277 302.755 255.678C300.83 256.48 298.103 257.602 294.735 258.966C287.998 261.773 278.695 265.863 268.67 270.835C258.645 275.808 249.663 280.54 243.166 283.908C239.958 285.592 237.312 286.956 235.467 287.998C234.585 288.479 233.863 288.8 233.382 289.121C233.141 289.201 232.981 289.362 232.821 289.362C232.66 289.442 232.66 289.442 232.66 289.442C232.66 289.442 232.74 289.362 232.821 289.362C232.981 289.281 233.141 289.201 233.382 289.041C233.863 288.8 234.585 288.399 235.467 287.918C237.312 286.956 239.878 285.512 243.086 283.748C249.502 280.219 258.485 275.487 268.51 270.515C278.535 265.542 287.838 261.532 294.655 258.725C298.023 257.362 300.83 256.239 302.755 255.517C303.717 255.196 304.439 254.876 305.001 254.715C305.241 254.635 305.402 254.555 305.562 254.475C305.642 254.475 305.642 254.475 305.642 254.475Z" fill="#D57E43"/>
<path d="M295.457 220.791C295.457 220.791 295.216 220.47 294.815 219.828C294.414 219.187 293.853 218.304 293.211 217.182C292.489 216.059 291.607 214.776 290.565 213.492C289.522 212.129 288.239 210.766 286.635 209.563C283.507 207.157 279.898 206.274 277.332 205.873C276.048 205.713 275.006 205.633 274.284 205.553C273.562 205.472 273.161 205.472 273.161 205.472C273.161 205.472 273.562 205.392 274.284 205.392C275.006 205.392 276.048 205.472 277.412 205.553C279.978 205.873 283.667 206.756 286.956 209.162C288.56 210.365 289.843 211.808 290.966 213.172C292.088 214.535 292.89 215.898 293.612 216.941C294.254 218.064 294.815 219.026 295.136 219.668C295.296 220.39 295.457 220.71 295.457 220.791Z" fill="#D57E43"/>
<path d="M286.795 297.061C286.795 297.061 286.715 297.141 286.474 297.301C286.234 297.462 285.833 297.702 285.432 297.943C284.549 298.504 283.186 299.226 281.502 300.028C278.133 301.712 273.402 303.878 267.948 305.642C262.494 307.407 257.362 308.61 253.672 309.251C251.828 309.572 250.304 309.813 249.261 309.893C248.78 309.973 248.379 309.973 248.058 310.053C247.818 310.053 247.657 310.053 247.657 310.053C247.657 310.053 247.818 309.973 248.058 309.973C248.379 309.893 248.78 309.813 249.261 309.732C250.304 309.572 251.828 309.331 253.672 308.93C257.362 308.209 262.414 307.086 267.868 305.241C273.321 303.477 278.053 301.392 281.422 299.707C283.106 298.905 284.469 298.184 285.432 297.702C285.833 297.462 286.234 297.301 286.474 297.141C286.715 297.141 286.795 297.061 286.795 297.061Z" fill="#D57E43"/>
<path d="M312.459 280.139C312.459 280.139 312.299 280.379 311.978 280.7C311.657 281.021 311.176 281.502 310.534 282.063C309.331 283.186 307.567 284.63 305.401 285.913C303.236 287.196 301.151 288.159 299.627 288.72C298.825 289.041 298.264 289.281 297.782 289.362C297.381 289.522 297.141 289.602 297.061 289.522C297.061 289.442 297.943 289.041 299.467 288.399C300.99 287.758 302.995 286.795 305.081 285.512C307.166 284.229 308.93 282.785 310.213 281.743C311.657 280.78 312.459 280.139 312.459 280.139Z" fill="#D57E43"/>
<path d="M304.84 314.625C304.84 314.625 304.68 314.785 304.439 314.945C304.118 315.186 303.717 315.507 303.236 315.828C302.755 316.229 302.113 316.71 301.311 317.191C300.59 317.672 299.707 318.314 298.745 318.875C296.82 320.158 294.494 321.522 291.848 322.965C289.201 324.409 286.153 325.853 282.945 327.136C279.737 328.419 276.53 329.542 273.642 330.424C270.755 331.306 268.109 331.948 265.863 332.429C264.74 332.67 263.698 332.83 262.815 332.99C261.933 333.151 261.131 333.311 260.489 333.391C259.928 333.472 259.447 333.552 259.046 333.552C258.725 333.552 258.565 333.632 258.565 333.552C258.565 333.552 258.725 333.472 259.046 333.391C259.447 333.311 259.928 333.231 260.489 333.151C261.131 333.071 261.853 332.91 262.735 332.75C263.617 332.589 264.66 332.349 265.783 332.108C268.028 331.627 270.595 330.905 273.482 330.023C276.369 329.141 279.497 328.018 282.705 326.735C285.913 325.371 288.88 324.008 291.607 322.564C294.254 321.121 296.66 319.757 298.584 318.554C299.547 317.993 300.429 317.351 301.151 316.87C301.953 316.389 302.594 315.908 303.076 315.587C303.557 315.266 303.958 314.945 304.279 314.785C304.68 314.705 304.84 314.625 304.84 314.625Z" fill="#D57E43"/>
<path d="M320.639 305.963C320.72 306.043 318.314 307.808 315.346 309.813C312.379 311.818 309.893 313.422 309.893 313.261C309.812 313.181 312.218 311.417 315.186 309.412C318.153 307.407 320.559 305.883 320.639 305.963Z" fill="#D57E43"/>
<path d="M328.339 328.178C328.339 328.178 328.258 328.259 328.178 328.339C328.098 328.419 327.938 328.579 327.697 328.74C327.296 329.141 326.654 329.702 325.933 330.344C325.532 330.665 325.131 331.066 324.649 331.467C324.168 331.868 323.607 332.269 323.045 332.75C321.842 333.632 320.559 334.755 318.955 335.717C318.153 336.198 317.351 336.76 316.549 337.321C315.747 337.883 314.785 338.364 313.822 338.925C313.341 339.166 312.86 339.487 312.379 339.727C311.898 340.048 311.416 340.289 310.855 340.529C309.812 341.01 308.69 341.492 307.567 342.053C303.076 343.978 297.863 345.582 292.329 346.705C286.715 347.667 281.341 347.988 276.369 347.747C275.166 347.667 273.963 347.587 272.76 347.507C272.199 347.507 271.637 347.426 271.076 347.346C270.514 347.266 269.953 347.186 269.392 347.106C268.349 346.945 267.226 346.865 266.264 346.624C265.301 346.384 264.339 346.223 263.377 345.983C261.532 345.662 259.928 345.02 258.565 344.7C257.843 344.459 257.201 344.299 256.64 344.058C256.078 343.817 255.517 343.657 255.036 343.416C254.073 343.015 253.352 342.775 252.79 342.534C252.55 342.454 252.389 342.374 252.229 342.294C252.068 342.213 252.068 342.213 252.068 342.213C252.068 342.213 252.149 342.213 252.309 342.294C252.469 342.374 252.63 342.374 252.87 342.454C253.432 342.614 254.154 342.935 255.116 343.256C255.597 343.416 256.159 343.657 256.72 343.817C257.281 344.058 258.003 344.218 258.725 344.379C260.169 344.78 261.692 345.341 263.537 345.662C264.419 345.822 265.382 346.063 266.344 346.223C267.306 346.464 268.349 346.544 269.472 346.705C270.033 346.785 270.595 346.865 271.076 346.945C271.637 347.025 272.199 347.106 272.76 347.106C273.883 347.186 275.086 347.266 276.289 347.346C281.181 347.507 286.554 347.266 292.088 346.223C297.622 345.181 302.755 343.497 307.246 341.652C308.369 341.171 309.411 340.69 310.534 340.208C311.096 339.968 311.577 339.727 312.058 339.406C312.539 339.166 313.02 338.845 313.502 338.604C314.464 338.043 315.426 337.642 316.228 337.081C317.111 336.519 317.913 336.038 318.715 335.557C320.319 334.594 321.602 333.552 322.805 332.67C323.366 332.188 323.928 331.868 324.409 331.467C324.89 331.066 325.291 330.665 325.692 330.344C326.494 329.702 327.055 329.141 327.537 328.82C327.697 328.66 327.857 328.499 328.018 328.419C328.258 328.259 328.339 328.178 328.339 328.178Z" fill="#D57E43"/>
<path d="M291.768 227.608C291.768 227.608 291.768 227.688 291.687 227.768C291.607 227.928 291.527 228.089 291.447 228.329C291.206 228.811 290.885 229.532 290.324 230.334C289.281 232.099 287.597 234.425 285.111 237.071C282.705 239.718 279.417 242.605 275.487 245.332C271.557 248.059 266.986 250.625 262.013 253.031C257.041 255.357 252.229 257.362 247.818 259.206C243.407 261.051 239.477 262.735 236.269 264.259C232.981 265.783 230.415 267.146 228.65 268.109C227.768 268.59 227.126 268.991 226.645 269.231C226.405 269.312 226.244 269.472 226.084 269.552C226.004 269.632 225.923 269.632 225.923 269.632C225.923 269.632 226.004 269.552 226.084 269.472C226.244 269.392 226.405 269.312 226.565 269.151C227.046 268.911 227.688 268.429 228.57 267.948C230.334 266.906 232.901 265.542 236.109 264.018C239.317 262.414 243.247 260.73 247.658 258.886C252.069 257.041 256.881 255.036 261.853 252.71C266.825 250.304 271.317 247.738 275.246 245.091C279.176 242.364 282.384 239.557 284.87 236.991C287.357 234.344 289.041 232.019 290.164 230.334C290.725 229.532 291.126 228.811 291.367 228.329C291.527 228.089 291.607 227.928 291.687 227.848C291.687 227.688 291.768 227.608 291.768 227.608Z" fill="#D57E43"/>
<path d="M301.071 190.716C300.991 190.796 300.028 189.833 298.264 188.55C297.382 187.909 296.259 187.187 294.976 186.465C293.692 185.743 292.249 185.102 290.645 184.46C289.041 183.899 287.517 183.417 286.073 183.097C284.63 182.776 283.347 182.615 282.224 182.535C280.058 182.295 278.615 182.375 278.615 182.295C278.615 182.295 278.936 182.214 279.577 182.214C280.219 182.134 281.101 182.214 282.224 182.214C283.347 182.295 284.63 182.455 286.073 182.696C287.517 183.016 289.121 183.417 290.725 184.059C292.329 184.701 293.773 185.342 295.056 186.144C296.339 186.866 297.462 187.668 298.344 188.31C299.226 189.031 299.868 189.593 300.349 189.994C300.83 190.475 301.071 190.716 301.071 190.716Z" fill="#D57E43"/>
<path d="M295.457 162.164C295.457 162.245 294.334 162.245 292.65 162.405C290.885 162.565 288.56 163.047 285.993 163.929C283.507 164.891 281.342 166.094 279.978 167.057C278.535 168.019 277.733 168.741 277.652 168.741C277.652 168.741 277.813 168.5 278.214 168.179C278.535 167.859 279.096 167.377 279.818 166.816C281.261 165.773 283.347 164.49 285.913 163.528C288.479 162.565 290.885 162.164 292.65 162.084C293.532 162.004 294.254 162.004 294.735 162.084C295.216 162.084 295.457 162.164 295.457 162.164Z" fill="#D57E43"/>
<path d="M293.772 225.683C293.772 225.683 293.853 225.843 294.093 226.164C294.334 226.565 294.574 226.966 294.895 227.608C295.216 228.249 295.617 229.051 296.018 229.933C296.419 230.816 296.9 231.938 297.381 233.061C299.306 237.713 301.712 244.289 304.118 251.668C306.524 258.966 308.609 265.703 309.973 270.515C310.695 272.921 311.256 274.926 311.577 276.289C311.737 276.931 311.898 277.492 311.978 277.893C312.058 278.294 312.138 278.454 312.058 278.454C311.978 278.454 311.978 278.294 311.898 277.893C311.737 277.492 311.577 277.011 311.416 276.369C311.015 275.006 310.374 273.001 309.652 270.675C308.128 265.863 306.043 259.206 303.637 251.828C301.231 244.53 298.905 237.953 296.98 233.222C296.499 232.019 296.098 230.976 295.697 230.094C295.296 229.212 294.895 228.41 294.655 227.768C294.334 227.126 294.093 226.645 293.933 226.324C293.853 225.843 293.772 225.683 293.772 225.683Z" fill="#D57E43"/>
<path d="M226.404 278.374C226.404 278.374 226.485 278.454 226.645 278.695C226.805 278.936 226.966 279.256 227.206 279.657C227.768 280.54 228.49 281.743 229.372 283.106C231.216 286.073 233.783 290.003 236.67 294.414C239.557 298.825 242.204 302.755 244.048 305.642C244.931 307.086 245.733 308.289 246.214 309.091C246.454 309.492 246.615 309.813 246.775 310.053C246.936 310.294 246.936 310.374 246.936 310.374C246.936 310.374 246.855 310.294 246.695 310.053C246.535 309.813 246.294 309.492 246.053 309.171C245.492 308.289 244.69 307.166 243.808 305.803C241.883 302.915 239.236 298.986 236.349 294.575C233.462 290.164 230.896 286.154 229.131 283.186C228.249 281.743 227.527 280.459 227.126 279.657C226.886 279.256 226.725 278.936 226.645 278.695C226.404 278.454 226.324 278.374 226.404 278.374Z" fill="#D57E43"/>
<path d="M244.69 311.096C244.69 311.176 239.798 310.935 233.783 310.534C227.768 310.133 222.876 309.652 222.876 309.572C222.876 309.492 227.768 309.732 233.783 310.133C239.798 310.615 244.69 311.016 244.69 311.096Z" fill="#D57E43"/>
<g opacity="0.3">
<path d="M289.201 297.943V298.103C285.833 301.873 282.464 305.642 279.176 309.492C292.409 304.68 302.354 291.768 303.477 277.733C299.627 285.031 294.815 291.848 289.201 297.943Z" fill="black"/>
</g>
<g opacity="0.3">
<path d="M277.251 345.903C268.349 344.218 258.885 336.84 252.79 330.183C257.682 338.925 266.103 346.705 275.727 349.431C285.351 352.158 296.018 350.875 304.76 345.983C295.697 346.945 286.073 347.587 277.251 345.903Z" fill="black"/>
</g>
<path d="M295.216 174.194C295.216 174.275 294.494 174.194 293.372 174.275C292.249 174.355 290.645 174.595 289.041 175.317C287.437 176.039 286.154 176.921 285.271 177.723C284.389 178.525 283.988 179.087 283.908 179.006C283.908 179.006 284.229 178.365 285.111 177.483C285.913 176.6 287.276 175.638 288.961 174.916C290.645 174.194 292.249 173.954 293.452 173.954C294.575 173.954 295.216 174.114 295.216 174.194Z" fill="#263238"/>
<g opacity="0.3">
<path d="M182.295 376.619C180.851 374.694 178.605 373.411 177.242 371.486C173.392 366.273 176.6 359.055 179.327 353.121C182.054 347.266 183.658 338.925 178.204 335.396C174.836 333.151 170.345 334.113 166.415 335.076C139.949 341.171 112.28 342.133 85.413 337.883L82.2852 336.599C84.21 345.101 86.1348 353.842 90.626 361.301C95.1172 368.76 102.656 375.015 111.318 375.657C117.252 376.058 122.947 373.973 128.801 372.85C134.576 371.727 141.312 371.968 145.563 376.138C150.054 380.549 151.257 388.81 157.433 390.013C164.089 391.376 169.222 382.714 176.039 383.115C178.124 383.276 180.45 384.238 182.214 383.115C184.219 381.672 183.818 378.544 182.295 376.619Z" fill="black"/>
</g>
<path d="M156.871 371.326L155.668 376.699C155.668 376.699 149.573 386.083 149.814 387.526C150.134 388.97 151.257 388.248 151.257 388.248L155.347 382.955C155.347 382.955 151.738 389.05 152.3 390.333C152.781 391.536 153.904 390.815 153.904 390.815C153.904 390.815 154.866 392.018 156.47 392.018C158.074 392.018 159.197 390.815 159.197 390.815C159.197 390.815 161.202 391.135 162.485 390.574C163.688 390.093 166.255 387.206 168.34 384.238C170.345 381.271 171.708 378.704 171.708 378.704C171.708 378.704 173.312 377.822 174.676 379.186C176.039 380.629 179.969 383.677 181.653 383.356C183.337 383.035 183.097 382.313 183.097 382.313C183.097 382.313 177.884 376.459 177.082 375.015C176.28 373.572 173.072 372.689 171.628 371.326C170.265 370.043 170.184 369 170.184 369L156.871 371.326Z" fill="#F9F6CC"/>
<path d="M165.854 380.308C165.934 380.308 165.613 380.95 165.132 381.912C164.651 382.875 163.849 384.158 162.966 385.521C162.084 386.885 161.202 388.088 160.56 388.97C159.919 389.852 159.518 390.333 159.438 390.253C159.357 390.173 160.801 388.008 162.646 385.281C164.41 382.474 165.773 380.228 165.854 380.308Z" fill="#F9F6CC"/>
<path d="M161.282 378.223C161.362 378.223 161.041 379.025 160.48 380.228C159.919 381.431 159.036 383.035 157.994 384.719C156.951 386.484 155.909 387.927 155.187 389.05C154.385 390.093 153.904 390.734 153.823 390.734C153.743 390.734 154.224 390.013 154.946 388.89C155.668 387.767 156.63 386.243 157.673 384.559C158.716 382.875 159.598 381.271 160.239 380.148C160.801 378.945 161.202 378.223 161.282 378.223Z" fill="#8B5D54"/>
<path d="M158.475 378.143C158.555 378.223 157.994 379.346 157.272 380.709C156.47 382.073 155.748 383.115 155.668 383.035C155.588 382.955 156.149 381.832 156.871 380.469C157.673 379.186 158.395 378.143 158.475 378.143Z" fill="#8B5D54"/>
<path d="M168.5 192.881C172.59 203.066 170.826 213.172 171.067 223.678C171.147 226.725 176.841 230.896 177.964 233.783C179.728 238.034 177.242 239.477 179.889 243.327C182.455 247.016 183.498 252.229 180.851 255.918C177.643 260.329 171.067 260.089 165.693 259.367C160.881 238.916 161.763 217.101 168.26 197.132" fill="#B80500"/>
<path d="M107.548 295.056C107.548 295.056 97.8439 283.347 93.9943 282.304C83.5683 279.497 70.5759 282.464 70.5759 294.414C70.5759 306.364 76.9117 324.088 76.9117 324.088C76.9117 324.088 83.5683 349.993 91.4279 356.489C99.2875 362.985 102.736 364.669 120.541 365.712C138.345 366.755 152.38 362.183 155.107 361.381C157.834 360.579 167.458 352.88 177.402 339.567C187.347 326.254 200.019 311.898 201.783 304.359C203.467 296.82 200.259 285.432 190.154 282.785C180.049 280.139 163.768 294.414 163.768 294.414L121.022 301.793L107.548 295.056Z" fill="#212019"/>
<path d="M98.4856 304.118C98.4054 304.118 98.0846 303.156 97.5232 301.552C96.9618 299.948 96.24 297.783 95.3578 295.457C94.4756 293.131 93.5132 290.966 92.7914 289.522C92.0696 287.998 91.5884 287.116 91.5884 287.116C91.5884 287.116 91.7488 287.276 91.9894 287.677C92.23 288.078 92.5508 288.64 92.9518 289.362C93.7538 290.805 94.7162 292.89 95.5984 295.296C96.4806 297.702 97.2024 299.868 97.6836 301.472C98.3252 303.156 98.5658 304.118 98.4856 304.118Z" fill="#212019"/>
<path d="M187.828 287.116C187.828 287.116 187.508 287.116 187.026 287.036C186.545 287.036 185.823 287.116 185.021 287.517C183.417 288.239 181.412 289.682 179.407 291.527C177.402 293.291 175.638 295.056 174.355 296.339C173.072 297.622 172.35 298.424 172.27 298.344C172.27 298.344 172.43 298.103 172.751 297.702C173.072 297.301 173.553 296.74 174.194 296.098C175.397 294.815 177.082 292.971 179.167 291.126C181.172 289.281 183.257 287.838 184.941 287.196C185.743 286.875 186.545 286.795 187.026 286.795C187.588 286.956 187.828 287.116 187.828 287.116Z" fill="#212019"/>
<path d="M199.136 294.414C199.136 294.414 198.896 294.093 198.575 293.452C198.254 292.81 197.773 291.928 197.051 290.885C196.41 289.843 195.527 288.64 194.324 287.517C193.121 286.394 191.598 285.432 189.753 285.031C187.908 284.63 186.064 284.63 184.46 284.87C182.856 285.111 181.412 285.512 180.209 285.913C179.006 286.314 178.044 286.635 177.402 286.875C176.761 287.116 176.36 287.276 176.36 287.196C176.36 287.196 176.68 287.036 177.322 286.715C177.964 286.394 178.926 285.993 180.049 285.592C181.252 285.191 182.695 284.71 184.299 284.389C185.984 284.149 187.828 284.068 189.753 284.55C191.678 284.951 193.282 285.993 194.485 287.196C195.688 288.399 196.49 289.602 197.131 290.725C197.773 291.848 198.174 292.73 198.495 293.372C198.976 294.013 199.136 294.414 199.136 294.414Z" fill="#212019"/>
<path d="M103.458 290.565C103.378 290.645 102.415 288.88 100.009 286.795C97.6835 284.71 93.7537 282.464 88.9417 281.903C84.1297 281.422 79.7989 282.785 77.1523 284.309C74.4255 285.833 73.0621 287.357 72.9819 287.276C72.9819 287.276 73.0621 287.196 73.2225 287.036C73.3829 286.875 73.6235 286.635 73.9443 286.314C74.5859 285.672 75.6285 284.951 76.9919 284.068C79.7187 282.464 84.1297 280.941 89.0219 281.502C93.9141 282.063 97.9241 284.389 100.17 286.555C101.373 287.597 102.175 288.64 102.656 289.362C102.897 289.682 103.057 290.003 103.217 290.244C103.378 290.484 103.458 290.565 103.458 290.565Z" fill="#212019"/>
<path d="M119.899 145.804L105.543 196.65L108.35 250.064L105.383 289.201L89.4228 324.168C89.4228 324.168 83.087 342.775 106.345 350.153C129.603 357.612 149.653 354.965 154.866 350.153C160.079 345.341 168.981 277.332 168.981 277.332L183.818 245.011C183.818 245.011 180.129 239.397 169.302 235.708C158.555 232.019 131.768 230.174 131.768 230.174L127.919 197.613L136.901 149.172C136.901 149.092 126.716 144.841 119.899 145.804Z" fill="#DAC06D"/>
<path d="M168.42 270.033C168.42 270.033 152.059 301.632 151.658 308.289C151.257 314.945 155.267 372.048 155.267 372.048L171.708 370.765C171.708 370.765 168.741 329.863 169.863 320.559C170.986 311.256 171.387 296.018 175.798 285.592C180.209 275.166 187.908 253.592 183.738 244.931L168.42 270.033Z" fill="#DAC06D"/>
<g opacity="0.3">
<path d="M169.382 262.495C167.297 260.249 164.009 259.928 160.961 259.768C149.092 259.126 137.142 258.404 125.272 257.763L118.535 264.099C117.012 268.67 116.691 273.562 117.413 278.294C118.776 277.251 120.139 276.289 121.503 275.246C121.663 277.332 122.305 279.337 123.187 281.261C125.352 279.337 127.518 277.492 129.683 275.567C134.575 279.818 140.991 282.224 147.488 282.384C153.984 282.545 160.48 280.379 165.533 276.369C167.698 274.685 169.623 272.68 170.505 270.114C171.467 267.547 171.227 264.419 169.382 262.495Z" fill="#DAC06D"/>
</g>
<path d="M168.42 270.033C168.42 270.033 168.42 270.114 168.34 270.194C168.259 270.354 168.179 270.515 168.019 270.755C167.698 271.236 167.297 271.958 166.736 272.921C165.693 274.765 164.169 277.572 162.485 281.021C159.197 287.998 155.347 298.023 152.62 309.492C152.46 310.214 152.3 310.935 152.139 311.657C152.059 311.978 151.979 312.379 151.899 312.7C151.899 313.021 151.818 313.422 151.818 313.742C151.738 315.186 151.738 316.549 151.738 317.993C151.818 320.8 151.899 323.447 151.979 326.013C152.219 331.146 152.46 335.717 152.701 339.567C152.861 343.416 153.021 346.544 153.182 348.71C153.262 349.752 153.262 350.634 153.262 351.196C153.262 351.436 153.262 351.677 153.262 351.837C153.262 351.677 153.262 351.436 153.182 351.196C153.102 350.634 153.102 349.752 153.021 348.71C152.861 346.544 152.701 343.416 152.46 339.567C152.219 335.717 151.899 331.146 151.658 326.013C151.578 323.447 151.417 320.8 151.337 317.993C151.337 316.63 151.257 315.186 151.417 313.742C151.417 313.422 151.498 313.021 151.578 312.62C151.658 312.219 151.738 311.898 151.818 311.577C151.979 310.855 152.139 310.133 152.3 309.412C155.026 297.943 158.956 287.838 162.325 280.941C164.009 277.492 165.533 274.765 166.655 272.84C167.217 271.878 167.698 271.236 168.019 270.755C168.179 270.515 168.259 270.354 168.34 270.194C168.34 270.114 168.34 270.033 168.42 270.033Z" fill="#DAC06D"/>
<path d="M148.931 313.181C148.931 313.181 148.851 313.261 148.611 313.422C148.37 313.582 148.049 313.823 147.648 314.063C146.766 314.625 145.563 315.346 143.959 316.309C140.831 318.073 136.34 320.319 131.127 322.324C125.994 324.329 121.102 325.692 117.573 326.494C115.809 326.895 114.365 327.136 113.403 327.296C112.922 327.376 112.601 327.457 112.28 327.457C112.039 327.457 111.879 327.537 111.879 327.457C111.879 327.457 112.039 327.376 112.28 327.376C112.601 327.296 113.002 327.216 113.403 327.136C114.365 326.895 115.809 326.574 117.573 326.173C121.102 325.291 125.914 323.928 131.047 321.923C136.179 319.918 140.671 317.752 143.879 315.988C145.483 315.106 146.766 314.384 147.648 313.903C148.049 313.662 148.37 313.502 148.691 313.341C148.771 313.261 148.931 313.181 148.931 313.181Z" fill="#DAC06D"/>
<g opacity="0.3">
<path d="M102.495 327.938C118.054 332.269 135.538 326.254 146.686 314.544C133.052 322.645 118.295 327.777 102.495 327.938Z" fill="#DAC06D"/>
</g>
<g opacity="0.3">
<path d="M151.498 313.742C150.615 323.447 149.733 339.647 149.894 349.431C149.974 354.243 150.375 358.574 153.984 361.782C153.102 347.827 151.818 327.858 151.498 313.742Z" fill="#DAC06D"/>
</g>
<path d="M134.094 149.092C134.094 149.172 131.528 148.691 128.4 148.049C125.272 147.327 122.706 146.686 122.786 146.606C122.786 146.525 125.352 147.007 128.48 147.648C131.608 148.29 134.094 148.931 134.094 149.092Z" fill="#DAC06D"/>
<path d="M133.613 162.164C133.533 162.164 134.014 159.518 134.656 156.23C135.377 153.022 136.019 150.375 136.179 150.375C136.26 150.375 135.778 153.022 135.137 156.31C134.415 159.518 133.773 162.164 133.613 162.164Z" fill="#DAC06D"/>
<path d="M180.53 266.505C180.53 266.505 180.61 266.104 180.851 265.462C181.092 264.74 181.412 263.778 181.813 262.655C182.615 260.329 183.658 256.961 183.658 253.191C183.578 249.422 182.054 246.134 180.45 244.369C178.766 242.525 177.242 242.044 177.322 241.963C177.322 241.963 177.402 241.963 177.563 242.044C177.723 242.124 177.964 242.204 178.285 242.364C178.926 242.685 179.808 243.247 180.61 244.129C182.375 245.893 183.979 249.262 184.059 253.191C184.059 257.041 182.936 260.409 182.054 262.735C181.653 263.938 181.252 264.82 180.931 265.462C180.691 266.184 180.53 266.505 180.53 266.505Z" fill="#DAC06D"/>
<path d="M122.786 145.804L126.074 135.618C126.074 135.618 121.824 125.192 122.786 124.23C123.749 123.267 131.608 117.092 131.608 117.092C131.608 117.092 133.613 102.977 134.495 102.496C135.217 102.095 136.821 102.095 136.901 104.982C136.982 107.949 136.982 118.295 136.982 118.295C136.982 118.295 141.633 122.947 141.633 125.834C141.633 128.721 139.147 137.784 139.147 137.784L135.618 148.53L122.786 145.804Z" fill="#F9F6CC"/>
<path d="M131.448 121.583C131.448 121.583 131.207 121.423 131.047 121.022C130.886 120.621 130.886 119.979 130.967 119.338C131.127 118.054 131.528 117.092 131.608 117.092C131.769 117.092 131.528 118.135 131.368 119.338C131.287 119.979 131.287 120.541 131.368 120.861C131.448 121.343 131.528 121.583 131.448 121.583Z" fill="#F9F6CC"/>
<path d="M138.265 124.711C138.185 124.711 137.784 123.267 137.463 121.503C137.142 119.739 136.821 118.295 136.901 118.295C136.982 118.295 137.543 119.658 137.864 121.423C138.185 123.187 138.345 124.631 138.265 124.711Z" fill="#F9F6CC"/>
<path d="M128.561 125.433C128.48 125.433 127.919 124.31 127.598 122.786C127.438 121.984 127.438 121.262 127.518 120.781C127.598 120.3 127.759 119.979 127.839 119.979C127.919 119.979 127.598 121.182 127.999 122.706C128.32 124.23 128.721 125.433 128.561 125.433Z" fill="#F9F6CC"/>
<path d="M125.593 126.556C125.513 126.636 124.952 125.754 124.791 124.551C124.711 123.989 124.711 123.428 124.791 123.027C124.871 122.626 124.951 122.385 125.032 122.385C125.112 122.385 125.032 123.348 125.192 124.47C125.353 125.593 125.673 126.475 125.593 126.556Z" fill="#F9F6CC"/>
<path d="M136.5 105.062C136.42 105.062 136.5 104.42 136.099 103.859C135.778 103.217 135.217 103.057 135.217 102.897C135.217 102.816 135.377 102.816 135.698 102.897C135.939 102.977 136.26 103.217 136.5 103.618C136.741 104.019 136.741 104.42 136.741 104.661C136.661 104.902 136.5 105.062 136.5 105.062Z" fill="#F9F6CC"/>
<path d="M138.425 135.859C138.345 135.859 138.585 134.977 138.986 133.453C139.387 132.009 139.869 130.004 140.029 127.678C140.109 125.433 139.628 123.348 138.906 122.064C138.265 120.701 137.543 120.059 137.623 120.059C137.623 120.059 137.864 120.22 138.104 120.46C138.425 120.781 138.826 121.262 139.147 121.904C139.949 123.267 140.51 125.353 140.43 127.678C140.35 130.004 139.708 132.089 139.307 133.533C138.826 134.977 138.505 135.859 138.425 135.859Z" fill="#F9F6CC"/>
<path d="M130.245 118.696C130.325 118.776 128.801 120.14 126.796 121.663C124.791 123.187 123.027 124.23 122.946 124.15C122.866 124.069 124.47 122.786 126.475 121.343C128.48 119.819 130.164 118.616 130.245 118.696Z" fill="#F9F6CC"/>
<path d="M144.36 177.723C154.625 176.52 165.372 182.375 168.5 190.876C172.029 200.5 166.495 210.846 167.377 220.871C167.939 227.046 170.906 232.901 171.147 239.076C171.387 245.492 168.58 252.069 170.665 258.244C171.387 260.49 172.831 262.815 172.189 265.141C171.467 267.788 168.259 269.312 165.452 270.515C159.277 273.081 152.861 275.728 146.044 275.808C139.227 275.888 131.849 272.84 129.683 267.226C127.357 268.83 124.951 270.354 122.626 271.958C122.225 270.354 121.824 268.75 121.423 267.146C120.139 268.59 118.535 269.713 116.771 270.595C116.29 263.216 115.728 255.838 117.012 248.54C117.974 243.166 122.144 237.151 123.027 231.778C124.55 222.074 123.107 213.011 125.272 203.307C127.438 193.603 131.287 181.974 141.874 178.365L144.36 177.723Z" fill="#B80500"/>
<path d="M142.275 191.758C142.194 191.758 142.275 190.956 142.435 189.753C142.595 188.55 142.916 186.866 143.397 185.102C143.879 183.337 144.44 181.733 144.921 180.61C145.402 179.488 145.723 178.846 145.803 178.846C145.884 178.846 145.563 179.568 145.162 180.691C144.761 181.813 144.199 183.417 143.718 185.182C143.237 186.946 142.916 188.63 142.676 189.833C142.515 190.956 142.355 191.758 142.275 191.758Z" fill="#B80500"/>
<path d="M162.325 201.543C162.244 201.543 162.645 199.939 162.485 197.292C162.325 194.645 161.442 191.036 158.956 187.748C156.55 184.54 153.262 182.615 150.776 181.813C148.29 180.931 146.605 180.851 146.605 180.771C146.605 180.771 146.686 180.771 146.926 180.771C147.087 180.771 147.407 180.771 147.808 180.851C148.53 180.931 149.653 181.092 150.936 181.573C153.503 182.375 156.871 184.219 159.357 187.588C161.843 190.876 162.726 194.645 162.806 197.372C162.886 198.736 162.726 199.778 162.645 200.5C162.565 200.901 162.485 201.142 162.485 201.382C162.405 201.462 162.325 201.543 162.325 201.543Z" fill="#B80500"/>
<path d="M155.187 212.289C155.187 212.289 155.026 211.888 154.866 211.167C154.706 210.445 154.465 209.402 154.305 208.039C153.904 205.392 153.743 201.703 153.182 197.693C152.54 193.683 151.177 190.234 149.573 188.149C148.049 185.984 146.525 185.182 146.605 185.102C146.605 185.102 146.686 185.102 146.846 185.262C147.006 185.342 147.247 185.503 147.568 185.743C148.209 186.224 149.011 186.946 149.813 187.989C151.498 190.074 152.941 193.603 153.583 197.613C154.224 201.623 154.224 205.312 154.625 207.959C154.786 209.242 154.946 210.365 155.026 211.086C155.107 211.888 155.187 212.289 155.187 212.289Z" fill="#B80500"/>
<path d="M165.452 212.771C166.014 212.771 166.575 213.573 167.056 214.776C167.618 215.979 168.179 217.583 169.061 219.588C169.943 221.593 171.066 223.918 172.349 226.806C173.552 229.613 174.996 232.901 175.798 236.911C176.039 237.873 176.119 238.916 176.279 239.878C176.359 240.921 176.359 241.883 176.359 242.926C176.279 244.931 175.958 246.615 175.718 248.139C175.477 249.663 175.237 250.946 175.076 252.069C174.996 252.63 174.996 253.111 174.916 253.673C174.916 254.154 174.916 254.635 174.916 255.116C175.076 256.961 175.557 258.324 175.958 259.287C176.44 260.329 176.921 260.971 176.68 261.532C176.52 262.013 175.557 262.414 173.873 261.773C172.269 261.211 170.344 259.367 169.141 256.72C168.821 256.079 168.58 255.357 168.42 254.555C168.179 253.753 168.099 252.951 168.019 252.149C167.858 250.545 167.858 248.941 167.938 247.337C168.019 245.733 168.099 244.209 168.019 242.846C168.019 242.124 167.938 241.482 167.858 240.76C167.778 240.039 167.698 239.317 167.457 238.515C166.896 235.467 165.853 232.42 164.971 229.452C164.089 226.485 163.447 223.598 163.207 221.031C162.966 218.465 163.207 216.299 163.688 214.936C164.249 213.412 164.891 212.771 165.452 212.771Z" fill="#B80500"/>
<path d="M142.275 191.758C142.355 191.838 141.473 192.56 140.35 194.164C140.109 194.565 139.788 195.046 139.548 195.608C139.227 196.169 138.986 196.731 138.746 197.372C138.265 198.736 137.783 200.259 137.463 202.024C136.821 205.553 136.5 209.803 136.42 214.455C136.34 219.187 136.5 224.4 136.5 229.853C136.5 235.307 136.26 240.52 135.137 245.171C134.495 247.497 133.693 249.582 132.891 251.507C132.089 253.432 131.367 255.277 130.726 256.961C130.164 258.645 129.683 260.169 129.443 261.612C129.202 262.976 129.122 264.259 129.202 265.221C129.282 266.184 129.362 266.986 129.443 267.467C129.523 267.708 129.523 267.868 129.523 268.028C129.523 268.189 129.523 268.269 129.523 268.269C129.523 268.269 129.523 268.189 129.443 268.109C129.362 267.948 129.362 267.788 129.282 267.547C129.122 267.066 129.042 266.264 128.961 265.302C128.881 264.259 128.961 263.056 129.202 261.612C129.443 260.169 129.844 258.645 130.405 256.961C130.966 255.277 131.688 253.432 132.49 251.507C133.292 249.582 134.094 247.497 134.656 245.171C135.778 240.6 135.939 235.387 136.019 229.933C136.019 224.48 135.859 219.267 135.939 214.535C136.019 209.803 136.34 205.553 137.062 202.024C137.382 200.259 137.864 198.736 138.425 197.372C138.666 196.731 138.986 196.089 139.227 195.528C139.468 194.966 139.788 194.485 140.109 194.084C140.35 193.683 140.671 193.362 140.911 193.041C141.152 192.721 141.392 192.48 141.553 192.32C141.713 192.159 141.874 191.999 141.954 191.919C142.194 191.758 142.275 191.758 142.275 191.758Z" fill="#B80500"/>
<path d="M123.027 260.249C123.027 260.249 123.027 260.169 123.107 260.089C123.187 259.928 123.267 259.768 123.428 259.527C123.588 259.287 123.748 258.966 123.989 258.645C124.23 258.324 124.39 257.923 124.631 257.442C125.593 255.597 126.876 252.871 127.758 249.262C128.721 245.653 129.362 241.242 129.603 236.349C129.763 233.863 129.844 231.297 129.844 228.65C129.844 226.004 129.683 223.197 129.683 220.309C129.603 214.615 129.683 209.162 130.245 204.269C130.806 199.377 131.929 194.966 133.613 191.598C134.415 189.914 135.458 188.47 136.42 187.347C136.661 187.107 136.901 186.786 137.142 186.545C137.382 186.305 137.623 186.064 137.864 185.904C138.345 185.422 138.826 185.182 139.227 184.861C140.109 184.3 140.831 183.979 141.392 183.738C141.633 183.658 141.793 183.578 141.954 183.498C142.114 183.417 142.194 183.417 142.194 183.417C142.194 183.417 142.114 183.498 142.034 183.498C141.874 183.578 141.713 183.658 141.473 183.738C140.991 183.979 140.27 184.3 139.387 184.861C138.986 185.182 138.505 185.503 138.024 185.904C137.783 186.144 137.543 186.305 137.302 186.545C137.062 186.786 136.821 187.026 136.58 187.347C135.618 188.47 134.656 189.833 133.854 191.518C132.25 194.886 131.207 199.217 130.646 204.109C130.084 209.001 130.004 214.455 130.084 220.149C130.164 222.956 130.245 225.763 130.245 228.49C130.245 231.217 130.084 233.783 129.924 236.269C129.603 241.161 128.961 245.653 127.999 249.262C127.037 252.871 125.753 255.678 124.711 257.442C124.47 257.923 124.23 258.324 123.989 258.645C123.748 258.966 123.588 259.287 123.428 259.447C123.267 259.688 123.187 259.848 123.107 259.928C123.107 260.249 123.027 260.249 123.027 260.249Z" fill="#B80500"/>
<path d="M173.472 236.269C173.472 236.269 173.152 236.109 172.67 235.708C172.189 235.307 171.467 234.826 170.585 234.104C168.821 232.74 166.415 230.735 164.089 228.089C161.843 225.522 160.239 222.715 159.518 220.55C159.117 219.507 158.876 218.625 158.796 217.984C158.716 217.342 158.635 217.021 158.716 217.021C158.796 217.021 158.956 218.385 159.838 220.47C160.64 222.555 162.244 225.282 164.49 227.848C166.736 230.415 169.142 232.42 170.826 233.863C171.628 234.585 172.35 235.146 172.831 235.547C173.232 236.029 173.553 236.269 173.472 236.269Z" fill="#B80500"/>
<path d="M146.204 191.919C146.204 191.919 147.006 192.721 147.969 194.565C148.931 196.33 149.894 199.217 150.295 202.826C150.696 206.435 150.375 210.766 150.214 215.578C150.214 217.984 150.214 220.47 150.696 223.036C151.097 225.603 151.818 228.169 152.781 230.816C154.625 236.029 156.871 240.841 158.234 245.412C159.678 249.983 160.32 254.394 159.999 258.003C159.678 261.693 158.555 264.5 157.593 266.264C156.55 268.028 155.748 268.83 155.748 268.83C155.748 268.83 155.748 268.75 155.828 268.67C155.909 268.51 156.069 268.349 156.149 268.189C156.47 267.788 156.871 267.066 157.352 266.184C158.315 264.419 159.357 261.612 159.598 258.003C159.919 254.394 159.277 250.064 157.753 245.492C156.31 240.921 154.064 236.109 152.219 230.896C151.337 228.249 150.535 225.683 150.134 223.036C149.733 220.47 149.653 217.903 149.733 215.497C149.894 210.685 150.214 206.355 149.894 202.746C149.573 199.137 148.691 196.33 147.728 194.485C147.247 193.603 146.846 192.881 146.525 192.48C146.365 192.239 146.285 192.079 146.204 191.999C146.285 191.999 146.204 191.919 146.204 191.919Z" fill="#B80500"/>
<path d="M169.863 216.781C169.863 216.781 169.863 216.54 169.863 216.139C169.863 215.658 169.863 215.016 169.944 214.214C169.944 212.53 170.024 210.124 169.944 207.076C169.863 204.109 169.623 200.5 168.58 196.65C167.618 192.881 165.773 188.791 162.726 185.422C159.678 182.054 155.588 180.049 151.658 179.407C147.728 178.766 144.119 179.488 141.392 180.53C138.585 181.653 136.58 183.016 135.377 184.139C135.057 184.38 134.816 184.701 134.575 184.861C134.335 185.102 134.174 185.262 134.014 185.422C133.693 185.743 133.533 185.904 133.533 185.904C133.533 185.904 133.693 185.743 133.934 185.342C134.094 185.182 134.255 184.941 134.495 184.701C134.736 184.46 134.976 184.219 135.297 183.899C136.5 182.776 138.505 181.252 141.312 180.129C144.119 179.006 147.808 178.285 151.738 178.926C155.668 179.488 159.838 181.573 163.046 185.021C166.174 188.47 168.019 192.64 168.981 196.41C169.944 200.259 170.184 203.868 170.264 206.916C170.345 209.964 170.184 212.37 170.104 214.054C170.024 214.856 170.024 215.497 169.944 215.979C169.863 216.54 169.863 216.781 169.863 216.781Z" fill="#B80500"/>
<path d="M151.738 200.259C151.578 200.259 151.097 197.292 149.573 193.924C148.049 190.555 146.124 188.229 146.204 188.149C146.204 188.149 146.766 188.63 147.488 189.673C148.209 190.635 149.092 192.079 149.894 193.763C150.696 195.447 151.177 197.132 151.417 198.335C151.738 199.457 151.738 200.179 151.738 200.259Z" fill="#B80500"/>
<path d="M157.833 194.966C157.673 195.046 157.031 191.919 154.545 189.112C152.139 186.224 149.172 185.021 149.252 184.941C149.252 184.861 149.974 185.102 151.097 185.743C152.219 186.385 153.583 187.427 154.786 188.871C155.989 190.315 156.791 191.919 157.272 193.041C157.753 194.164 157.833 194.886 157.833 194.966Z" fill="#B80500"/>
</svg>
